<mxfile host="app.diagrams.net" modified="2024-02-25T17:44:44.683Z" agent="Mozilla/5.0 (Macintosh; Intel Mac OS X 10.15; rv:123.0) Gecko/20100101 Firefox/123.0" etag="iF8ABKtEQQ69HP5tzmHM" version="23.1.6" type="github">
  <diagram name="Page-1" id="nh5qXJzD2VxxysvJyf2o">
    <mxGraphModel dx="1706" dy="881" grid="1" gridSize="10" guides="1" tooltips="1" connect="1" arrows="1" fold="1" page="1" pageScale="1" pageWidth="850" pageHeight="1100" math="0" shadow="0">
      <root>
        <mxCell id="0" />
        <mxCell id="1" parent="0" />
        <mxCell id="eMHiDjT53iHaDXQ3OkJ9-1" value="NLU" style="rounded=1;whiteSpace=wrap;html=1;" vertex="1" parent="1">
          <mxGeometry x="120" y="160" width="120" height="60" as="geometry" />
        </mxCell>
        <mxCell id="eMHiDjT53iHaDXQ3OkJ9-4" value="" style="endArrow=classic;html=1;rounded=0;exitX=0.5;exitY=0;exitDx=0;exitDy=0;entryX=0;entryY=0.5;entryDx=0;entryDy=0;" edge="1" parent="1" source="eMHiDjT53iHaDXQ3OkJ9-1" target="eMHiDjT53iHaDXQ3OkJ9-7">
          <mxGeometry width="50" height="50" relative="1" as="geometry">
            <mxPoint x="290" y="170" as="sourcePoint" />
            <mxPoint x="380" y="120" as="targetPoint" />
            <Array as="points">
              <mxPoint x="180" y="115" />
            </Array>
          </mxGeometry>
        </mxCell>
        <mxCell id="eMHiDjT53iHaDXQ3OkJ9-5" value="" style="endArrow=classic;html=1;rounded=0;exitX=1;exitY=0.5;exitDx=0;exitDy=0;" edge="1" parent="1" source="eMHiDjT53iHaDXQ3OkJ9-1">
          <mxGeometry width="50" height="50" relative="1" as="geometry">
            <mxPoint x="290" y="210" as="sourcePoint" />
            <mxPoint x="320" y="190" as="targetPoint" />
          </mxGeometry>
        </mxCell>
        <mxCell id="eMHiDjT53iHaDXQ3OkJ9-6" value="" style="endArrow=classic;html=1;rounded=0;exitX=0.5;exitY=1;exitDx=0;exitDy=0;" edge="1" parent="1" source="eMHiDjT53iHaDXQ3OkJ9-1">
          <mxGeometry width="50" height="50" relative="1" as="geometry">
            <mxPoint x="190" y="310" as="sourcePoint" />
            <mxPoint x="250" y="260" as="targetPoint" />
            <Array as="points">
              <mxPoint x="180" y="260" />
            </Array>
          </mxGeometry>
        </mxCell>
        <mxCell id="eMHiDjT53iHaDXQ3OkJ9-7" value="intent classification" style="text;html=1;align=center;verticalAlign=middle;whiteSpace=wrap;rounded=0;" vertex="1" parent="1">
          <mxGeometry x="380" y="100" width="120" height="30" as="geometry" />
        </mxCell>
        <mxCell id="eMHiDjT53iHaDXQ3OkJ9-8" value="entity extraction" style="text;html=1;align=center;verticalAlign=middle;whiteSpace=wrap;rounded=0;" vertex="1" parent="1">
          <mxGeometry x="320" y="175" width="100" height="30" as="geometry" />
        </mxCell>
        <mxCell id="eMHiDjT53iHaDXQ3OkJ9-9" value="response retieval" style="text;html=1;align=center;verticalAlign=middle;whiteSpace=wrap;rounded=0;" vertex="1" parent="1">
          <mxGeometry x="250" y="245" width="100" height="30" as="geometry" />
        </mxCell>
        <mxCell id="eMHiDjT53iHaDXQ3OkJ9-10" value="" style="verticalLabelPosition=bottom;html=1;verticalAlign=top;strokeWidth=2;shape=mxgraph.lean_mapping.physical_pull;pointerEvents=1;" vertex="1" parent="1">
          <mxGeometry x="40" y="180" width="100" height="100" as="geometry" />
        </mxCell>
        <mxCell id="eMHiDjT53iHaDXQ3OkJ9-11" value="process user utterance" style="text;html=1;align=center;verticalAlign=middle;whiteSpace=wrap;rounded=0;" vertex="1" parent="1">
          <mxGeometry x="60" y="215" width="60" height="30" as="geometry" />
        </mxCell>
        <mxCell id="eMHiDjT53iHaDXQ3OkJ9-14" value="Dialogue Policies" style="rounded=1;whiteSpace=wrap;html=1;" vertex="1" parent="1">
          <mxGeometry x="520" y="160" width="120" height="60" as="geometry" />
        </mxCell>
        <mxCell id="eMHiDjT53iHaDXQ3OkJ9-16" value="" style="shape=image;verticalLabelPosition=bottom;labelBackgroundColor=default;verticalAlign=top;aspect=fixed;imageAspect=0;image=data:image/png,iVBORw0KGgoAAAANSUhEUgAAApUAAAGXCAYAAADicasxAAABUmlDQ1BJQ0MgUHJvZmlsZQAAGJV10M8rw3Ecx/HnZpq0w5KS/OiblMsm+5EfNyNJOayhcNF3383INh/fbaEcHPwPXNwcpVwl7Q9QlFLuDsqRlrL19f5u2JBPvXs/evXu07s3OMq6UmkXkMnmzdj0hLa4tKy5n3DSiZc+RnUjpyLR6KyM8NV/vtI9Drvf+e2/rp9vDgv7oR1/uLy70XsZ+Dv/47UmkjlDelmq31BmHhyaOLqdV7aVuN2UpcQHtlM1H9mO13xanZmPTYqLYq+xpifEt2JfvCFPNTiTLhifO9jbe5LZhTnpLVLdBBlhisA/M+HqzCSbKHYxWSfFGnk0IpIo0iTFM2QxGMQnDjIkFbZv+/tm9UyNw1ganM56ttIFZ+fQ9lrPBvag4xGuhpVu6t+XdJRcudVQsGaPCc1vlvXSA+4LqJiW9X5sWZUTaHqA4tYHbd1hVo/mO2oAAAB6ZVhJZk1NACoAAAAIAAQBBgADAAAAAQACAAABEgADAAAAAQABAAABKAADAAAAAQACAACHaQAEAAAAAQAAAD4AAAAAAAOShgAHAAAAEgAAAGigAgAEAAAAAQAAApWgAwAEAAAAAQAAAZcAAAAAQVNDSUkAAABTY3JlZW5zaG90hUC6GAAAAu9pVFh0WE1MOmNvbS5hZG9iZS54bXAAAAAAADx4OnhtcG1ldGEgeG1sbnM6eD0iYWRvYmU6bnM6bWV0YS8iIHg6eG1wdGs9IlhNUCBDb3JlIDYuMC4wIj4KICAgPHJkZjpSREYgeG1sbnM6cmRmPSJodHRwOi8vd3d3LnczLm9yZy8xOTk5LzAyLzIyLXJkZi1zeW50YXgtbnMjIj4KICAgICAgPHJkZjpEZXNjcmlwdGlvbiByZGY6YWJvdXQ9IiIKICAgICAgICAgICAgeG1sbnM6dGlmZj0iaHR0cDovL25zLmFkb2JlLmNvbS90aWZmLzEuMC8iCiAgICAgICAgICAgIHhtbG5zOmV4aWY9Imh0dHA6Ly9ucy5hZG9iZS5jb20vZXhpZi8xLjAvIj4KICAgICAgICAgPHRpZmY6Q29tcHJlc3Npb24+MTwvdGlmZjpDb21wcmVzc2lvbj4KICAgICAgICAgPHRpZmY6UmVzb2x1dGlvblVuaXQ+MjwvdGlmZjpSZXNvbHV0aW9uVW5pdD4KICAgICAgICAgPHRpZmY6UGhvdG9tZXRyaWNJbnRlcnByZXRhdGlvbj4yPC90aWZmOlBob3RvbWV0cmljSW50ZXJwcmV0YXRpb24+CiAgICAgICAgIDx0aWZmOk9yaWVudGF0aW9uPjE8L3RpZmY6T3JpZW50YXRpb24+CiAgICAgICAgIDxleGlmOlBpeGVsWERpbWVuc2lvbj42NjE8L2V4aWY6UGl4ZWxYRGltZW5zaW9uPgogICAgICAgICA8ZXhpZjpVc2VyQ29tbWVudD5TY3JlZW5zaG90PC9leGlmOlVzZXJDb21tZW50PgogICAgICAgICA8ZXhpZjpQaXhlbFlEaW1lbnNpb24+NDA3PC9leGlmOlBpeGVsWURpbWVuc2lvbj4KICAgICAgPC9yZGY6RGVzY3JpcHRpb24+CiAgIDwvcmRmOlJERj4KPC94OnhtcG1ldGE+Col6tXQAAEAASURBVHgB7F0FYFXHtt1xd4HgBHcpVijUKJSWV6Du9uvur33tq7u+unupQAs1pNAChUKhuBZ3DYQkxP2vtW/mcggJDZCE5GYGbs45c0bXzJlZs2fPjFcxjFhjEbAIWAQsAhYBi4BFwCJgETgKBLyPwq/1ahGwCFgELAIWAYuARcAiYBFQBCyptBXBImARsAhYBCwCFgGLgEXgqBGwpPKoIbQBWAQsAhYBi4BFwCJgEbAIWFJp64BFwCJgEbAIWAQsAhYBi8BRI+D7TyHs2bPnn5zY9xYBi4BFwCJgEbAIWAQsAnUIgdjY2INy+4+kkj7K8nhQSNbCImARsAhYBCwCFgGLgEXA4xEoT+Bop789vuhtBi0CFgGLgEXAImARsAhUPQKWVFY9xjYGi4BFwCJgEbAIWAQsAh6PgCWVHl/ENoMWAYuARcAiYBGwCFgEqh4BSyqrHmMbg0XAImARsAhYBCwCFgGPR8CSSo8vYptBi4BFwCJgEbAIWAQsAlWPgCWVVY+xjcEiYBGwCFgELAIWAYuAxyNgSaXHF7HNoEXAImARsAhYBCwCFoGqR6BC+1RWfTJqVwzFxcXuBDvv3Zb2ps4j4OXlJfyZ+sF7aywCFgGLgEXAIuDJCFhSeQSl6yQIzvsjCMp68XAEbP3w8AK22bMIWAQsAhYBNwKWVLqhqPiNkT7xumHDBklPT1epVMVDsC49HYEmTZpIVFSUlVR6ekHb/FkELAIWAYuAGwFLKt1QVPyGZJISKB5T9Ouvv0r9+vXdU51WMlVxHD3NJeuFn5+f7Nq1S7Zv3y5DhgyxpNLTCtnmxyJgEbAIWATKRcCSynKhKf8FiSN/eXl5Ko0aNGiQJZXlw1Vn3hQVFUlQUJAsWrRISSUzbgcZdab4bUYtAhYBi0CdR8CSyiOsApRKeXt7C4lEbm6uJZVHiKMneWNdYJ0oKChwk0kj1fakfNq8WAQsAhYBi4BFoCwE7JZCZaFSATsrgaoASNaJm1xaKCwCFgGLgEXAIuDpCFhJ5VGWsJkKNyTTXI8yWOu9FiJQui7UwizYJFsELAIWAYuAReCIEbCk8oihO9ijmerkNGhhUaF4e2F6vBhToiVXH28fnR6lO5rKJqDOcJkG82zi4tQs7fjOmS6+N2njPd0UFBZoun18fGh1gB3DYdrprrLzoJHZPxYBi4BFwCJgEbAI1DoELKmsxCIzRCswMFD4K22ys7NV/5KkjKYySZkzrMLCQgkJCRF/f393EnJycoTxkyRGRkYeRAb5jm6YNv5iImKUfHK7JIZNf7SjoR2JqSWUbnhr9Y2pO7wejamo/8qoN+ZbY3orI7yjybf1axGwCFgELAIuBCyprMSaQKJFMrlixQqZP3++hmzIV0BAgPTu3VsSExMlMzPTLbHkexoj/eM9O2djzw6T75wdv3ln/Djf8T40NFTj//HHH2XHjh3Spk0bGTZsmLRs2VIyMjLkm2++UWJIosiwgkOCpXev3tK8eXN9T9L49ddfS7169eTEE08Upj01NVVGjx6txHPo0KESHRMtBfmQZpYQZKbbmpqDAOsBjZN8lU6dcWOupl4Zd+WVramTxp25Hi25YzpKp8GEzWvpdyZ9jPdQcfMdwz6UG2c89t4iYBGwCFgEjgwBSyqPDLcyfXHVL7eUGTdunDz88MMHuWnQoIF89dVXSi5J3IKDg/XHzpJEkxJG0/GFh4erdNBIEEkA+d7P30/Cg8M17MysTDexMx0yCeWYMWPkuuuuk3379kl8fLx88skn8vrrr2vcvXr1kttvv12SkpIOSB8J5LPPPitXXnmlkmL679Kli8yZM0elq5deeqlMmTJFLrvsMuF9YUHhAf7tw7FBwJAlXksbUycMGXOSMN6bumb8sY4djmH4rIPQpVB1CUq6aYrxLOZUSpMsPvMeV34jrvghsUcYgXjm/p5Mz6HScKh3jJeG34gxznyXzqtxQ3uDobGzV4uARcAiYBE4MgQsqTwy3Mr0ZToodpq+vr5y9dVXy2233abSvU8//VSJ3Ztvvin9+/fX/S03bdqkBI7uO3fuLGFhYW5dxpkzZ0pKSop07NhRWrRooZJCTltT8jhj+gztgDt06KAbr5OQOjvNJ598UrKysmTWrFlKYF944QW5//775emnn5aJEyeq5JGk9eOPP5aIiAj55Zdf5KWXXlKy2adPH5V0Mv10w+vw4cOVUF577bXy3nvvuae/DUkpEwxrWekIlEUcGQmJVGkC5SSNZZGx/Px8Scbm/XuSd8ve5GRJTUlFHUuRvXv34peCMt4n+zDwoWQ7PT1DMjIzJC83D/UKA5lCSNdBEJmeAsTt6+evacjLzwNZ9FWC6OaSJWTSPDO9AQH+4JZekp+Xq2H4qCTepU4BioeBVhB+IRKM7yI4NERCcOVgKSgoGPU1XAdKUVGRUOOI1u+IUvPo6BiJws+ZV+c946UhTky3Ey9iVRa2zm/K5dv+tQhYBCwCFoFDIWBJ5aHQOYJ3piOi1JJH9ZH40SSj46a0kJ053Tz00EPy9ttvq9SGEp6EBgny8Ucf6/T4eeedJytXrlR3lDbeeOON8txzz6n7Rx55RMNjp0i9yZdfflnOOusslXTqC/zRzh7xk0CGolOmf05jkyCmpaWpM6bhlFNOUf3KU089VckD00Mp58UXX6x7LTKOK664QsO54YYb5I033lD/DN90xCa/Jm57rVwEyiI7LBf+WAYkTubnjJmEcdOmjbJp40bZsmWzbN26Db+tOihJwru8vHwpLPZCOCBYIHgITQlhUEi4BIdHQHoYIoHBoRIQGC9BDRIlLCBYn4Noh3f+UPNg2ftCwujrF0ABJJ4h/USa/PwD9ifFSCj320CwWajSTJJKmkLU1fy8HM0Tr7nQ783LzZIcDIzycrIkKSNNNu/IwHOyZGXsk6z0NEjoof+LsH3wIxGVYuwNikVxfr4+IJ1x0rBhQ2mImYGGjRpK40ZNpEnTptKseXOQ0GiNszThNMScmPJH48Te1nOFxP6xCFgELAKHRMCSykPCc2Qv2eHT/PDDD9qR8+QdSh4bNWokd955pyTvTRbqOw4ePFg+++wz+fzzz4VSwAkTJkjrNq3l999/V3ePPfaYSg+XLVumEqTvv/9e2rVrp355asvJJ58s77//vpx77rk61c2Okh3hf//7X7n55pvl8ccf119TdKh0QyLrg06Xhu6oJ8krpUB9+/ZV0rp+/Xqd7qabuXPnarp5zzAYPvPiXADEd9ZUPgKG0JDM8N7UKUMgDSlieSxZvAC/JToQWblylazfsFHy8gulECQPckTxAyGMjk+QqLgGktCls3So10DCwqMkKCRMQsMiJTgMRDI0XEJCI1A/fBGfq/6iloD8MW+4qqixREKp9i7Zo6bN7d5Vr/b7LxsXZAlm//S7NyyUtOkV9nztduN6QFaMpRLXQuQ7MyNdsjJBMnHN2JeihDM9FZLWPdtl185tsmLOSkkd9zsIKBaogTb7gMwG+PtIs2ZNpV3bttIWv06dOkvnrt1Uem8wZUxmGp0E05SBpsCVeN5aYxGwCFgELAKlELCkshQglfFoCMGWLVt02jAnO0c2bNigC2YaN26Mab1gJZOTJ0+WO+64Q+bNm6fSEUos27Zpi6m8aHnrrbeUXPL86LvvvlunxikpJPGktHLx4sXa2bHTY3xeENvwnjqYF1xwgU57jx07VqZOnarEkNPby5cvV0mkM4/cWsh0puw8SRh9fFySGhKW008/XRf9cEq9X79+wunxfZga9fWxVceJY2Xem/rD8jDkxpQRT2+aNuVXmTN7tkz/4w/ZsnWHFHsHSJGPn8Q1aCYNm3eVU/tfKLH1GkpkTD2Jjq0voZA8kpRS15FhF4Nc8Vmlc9g6qkinzwtlX8pufe8idCZHyu4OtOIrl3WJowMejMfDvLpIKoWOTrP/cf8d3RAbbwxyQkCGSZATmiSiTvoo4fTywlXfsx57SUYapvX37JTU5CTZs2OrbN+8WmYsWSljJk4X7yLMHBTlScOEenIC6nfPnj3l1NMGYvo9VJNBvIiTJZfOUrH3FgGLgEWgbAQsMygblyO2ZSdkCAB1Kp966intwB988EFdCEM9RkoRR4wYobqW559/vnA1NYkldSO7d+8u06dPl59++kkmTZqkepAffPCBkklOQXNlOaWOJHt//TXHTTqKoOcWEBwga9eu1XckgC+++KJbMnpc9+M03O3bt+s0ODNI8kq9SZrx48croeDiHJ8SwtiufTuNlwt4HnjgAbnllltk2rRpmGL00zy5CS06cGsqBwHWHxIiGpIZU5d+nfyLjMKq/Zmz50ICGSBhsQ2kXfczpO8FnSShUXOJbwBJMqTQXEBVXITpZEwpF0LVgtPJybuwmEaDpCZjiXE+l8THqWtKDZkGGpOOEh814mLw4ZW/QpDiwoJ8Kc5j8pDuEu7purieST5JruMSGku7rr1BEH3dWCXt2Cw7t0JNYPVS+WX2TBn142TxfuAhOa5bZ3xn58iwEedoGZRFLGsEIDYRFgGLgEWgBiFgSWUVFgY7InZ81KM86aSTVC+SupVLliyBntsWueeee4SLaJ555hlNRUxMjE5nc0ENF8RwcQ0JJ1eTL1y4ECTyLxk0aJAusPnuu+8glcxxr5plAIwnNjZWieVsSLJ4z0VBq1atUl26Zs2aKZGklIoSTU6Hk1QybJJKbnd07nnnyuZNmzU90dA/o/SUi42Yhj8gGWOa3n33XZ3CJ+moicRDE19L/xBPQ5hIKGfN/EPLaWdKtrTo3FfOvf0ladG2k0REx0kBJMn5IFT5kF6qlBGMSmmjIYwlV9eUtotmVaS8KuLmWMFr0maumg7Ww1IJIoZ0wytNQUEuvg/qcLqIJiipYsXpfxLNTj36yYgrb5f0tFTZsHKJLJ7zmzzw+Ivy5NPPyv333SvnnHe+DqQY1gFx08Iai4BFwCJgEVAELKmsxIpgOjKj/2Y6NE4jx8XFaQe3Zs0a6HF1klatWukiG24xxFXdNFzZfSW29CHRpCSyfv36snv3bt3C5+yzz5YvvvhCpZdchBARGaELdagXyfi8MWXNxUEkpiNHjlRpKKWLxlAn8n//+597CyMSUC4cMobkk1PkJJLr161Xa7rhj9u90C/TRLJ7wgkn6GIeLiIy04ImHHs9OgRYZ1ieJJQffvC+PPjokzLk4tvl6mGXqd5jbi4WseRkQvq43UVuSoi9U8pYFukpy+7oUlqzfZv8mitFtYDKRTJxNRLZwsJ8KciEmBO4E3tKNVt06CodjusnudfcJ7N//VFuv/ch+Qv6xc89/8IBU+E1GwGbOouARcAiUP0IeKEhdQ3ly4l7D1aKUuJlzX4ECBk7K04lz5gxQ8kWnw0Z4FZAu3btUiJJkkd7+iGh5ApsLhAgWfwDUihOJZOkcWUu963k9kGUDnJhD+3olnpeNJwe59Q4twsaMGAAFudgFSymO7mpOeNgGigdpfSR5cYN2Ddv3izcH5NhsBy5RQztSBbN1Cr1KCml5DMlmHxHHVCuLufiIoZNN5SukkjSvknTJu69Kvd33Psxqot3xInbQy1dulT3AT3jjDNcJAZgVBQjU477sEq/e49ecv4dL0jfgWfJbkzTClZrkzwyLP7Mp1vRsOtimVQkz04cee/6uRYlhUfFyN7dSfLQlQNk8vgfpQsW9TjVEioSflluTJx857wvy621q3kIOL855/3RptRZF5z3Rxuu9V89CDjrgvO+emKv3ljK44ZWUlmJ5cBKRFJA8paQkKDkjASN9vx17dpVOxCSQrq56MKL1J57APId/ZLUkdxxgQ6lgOzASATZwPC0HkosGRbDoCST9/TDKw39KvHDVkKULDIMhpuVnaXh8D1XkBv39MP3JLKMg/Y8Qcekh/YMg9JWswKcaeKCEWcYDMeao0eAZUC809L2SSa2ztkLMkk7P78g1Cfu68jBg2uVP2NjGfC9udcb+6dCCBjcjGPzbK7cKskHv6Rt6yQfWxvt2LlTOgNrfi/8jo7GmG+HcbG8raldCLDcTBlWZspNmLZeVCaq1ReWqRe81lVjSWUllrxpCEgkScLYQDgbCUoaaQxJIzEzz5n5+9+x0zL7SZr39EN7TnfTmHDNe2clZofHBRvOMOie9nRHQlra8L3p3BiPM630w/ckmDS858/EyXtrKgcBN65eIJKBwTLqg+dl48p5MuTCW6VBYluUoZ9kZ+3DNjl5qA+u02N0f0hHeTAlLBK2a7ZsXOVi6rCps6a0+Gy2QPL25p6ffhKKDdZpl7Rtg/zw0TMya+p4LI7y1VkG4mm+ExPGkVxNOhgeD0FIwhZI3tx4s+72RUcCY/X6QVmxbYyNqy/NMbPjLMPKSogzzNWrV0laSrKqalRW+DacKkAAny33+23YuJnOCrIM63K7a0llJdYxU5F4Nfcm+NJ2pTsmp3velyUJKc+ecTj9m+fywijt1qTRXPne6cbcm6vTnbm318pDgDgXYGPwkPBY6XPVw7Jq+lfy/L2XSdPEltK+e1/p2Oc0bB/UFPtMRmikudgovAC6luzwivlzsckDytCZOobv7Lyc72rrvWnITb5K54P2xAcZV1xUBxUDNV9IgAMCg8QLu6hnYauslF3b5I/xn8uKBbNk/arlEhyXKKdc/4b8+c1TkpedUTrYI3426U1K2iWnDzlDMvJ9xBcqJnrE5RGHaj1WJQL8brjbgE9BJrb1mozDLZrqd1S6XTyaNLCOsm9YtHCBnHHWCPEPgeoZBdl2sHE0sFapX65nyMVMYIOYEJmOPaY5o2jKsUojrqGBW1JZQwvGJqtuI8COpQAru4MjYmTQTa9L0qblsnbuRPl10ngZP+ojPV6zYWIbadqygzRr200aNGsrgdjMPDAoFOTET0kpV4ZzhXgRthgyZFOlcoZ0YvEK1DRhDhxElId8VZNRQwid8ZSXFrVHPrSvdVy199VBketkHIbl7YMthHCUpJ9vQAk2+ZIDgpiTmS4bVy2RTasWyuY1K2TrxlU4rnKv+IfFS/3WveSk666X+GadUA55wNGlBnLI9BzGS+aVZZyG+LILfaT//70qYVFxuj1SZZKUw0iSdXoIBLS8UI9yUW+mvHW9pCTvgTpQM9dA5RD+DvcVyQiFAbt2bhfv4Fg57faPUaVdA0VbLw4Xzap3z3bVLyBIdm5aKSvGPorDGDJUr14HsFUffY2MwZLKGlksNlF1HQHVnQTpKAShyUzdJaFR8dJ72K1SOPQGSdu1SXZtwLZUy2fI2knjJO+7z6UYp8ZExdWTGJycE1e/sdRrnCixCc1wbYHNz6NApgK08fOHVI5kpjCfm55jj0cQTl6LoC7BjfBNB6YET8kap4dRGiX3oJ+uoim57C8n95v9VuXcuYQu/MtAXE/qtOSWVFFDw2tXR7qf9PLZ9XNtdM7tkrivKvee5Mptb+zVybzk5XGVfLaS6/TdO3Uqe8+ODbJr83rZk7RNkpN2gBgkQUIZCBIZI6ExOM7x+IulZ2IXiajfDBLMQEgmcVpP6m7xhgSRKgaG9JaTrcOyZh4YHg8a4O4KfojDD2eiU+rhyvNhBWcdVzECLlKJulWI7wjlxW+IdpVdViZcEks/DoRQJ/Tbq4K4qhiyOhF8MfaH9sMaBH6/PLKWKixVUS9qE5iWVNam0rJprTMIkMSwM1F9Sej6cSPzrLw92omFRteTyHr/kg4Dzsfm5lkgPntk356tsmfzSknZvlq2L10heX/NlgKQonxsP8QV6aHhkfoLi4iSMEg/w6Nj8UM40fEgrDESFhmHaeBgNIyuxtHHFycrYWcCdm7UMyRZI+FBknSKliN0GteInJZMrkvH858KyQv52W8oSQR7dIlMXaSKDTN0lKgX7CS+fNYtgKAawHPDM3E04z7onGWA+O3DLx336Wl7YJ+Ka4ruOcnFTrm52M81IEx8IcX1h8pAWFwTSeh+vHRq0lbCYxtCGhyn+qsFIKKUSOZnZUhe8T7uO1Sy2h75JtEFEaxMY8Ijhu4fOiljX5lx2bCODgESBRSMu5wYGstJ7Y8u6IN8m/LnIE+/r5KTsIz9QR6sxTFDgO2g+XaNbnZV1YtjlsnDjNiSysMEzDq3CFQbAiUkxnQmXiB2ECcqweTZ1zkZqejYvMU/OETim+NkndbdsZgkgPxOcjNTJQ/kKBeLevYlb5N0kM705O2SlLJTNu9ci4U+yyDdzFUSVVyYI4UgaYyOxNIfI2/qGfoHQIpnfv6BmEL2E3+shvaDXQDipFSF0+0kX5QWBgSGKDQmvUyH3qND1ns8sxPm1LN2xmqPZ0wZ8bmAC9w4LY2V1nn8YSFbAdKYn8eTgbh5OTZ7x3MO9Jf4gyeQ3QDxhl6kL9JL/UhfpCGIkseErtKkfYKExzWUsOgGwCgcP6gH4IpUYUo7R4oQX2FhHnBKB15pLhJJBTYA4YX8QIzrSj8lpipV1exV+h9idMAPeFpTwxDAGMpZRtWROtY5/X6oU8n4bb2oDtgPLw5u82a+3ypsIw4vUcfWtSWVxxZ/G7tFoEIIaMNFl+hYdDGHNmQuiZ9OXedn4WQdUDeQThpKA7l6nGQqol5TSAB5NCEkjpA6FmPVOCVyBfn85SqhLCRZA7nK3rdHsvYlQ8KZgR8kd7mZko2FQPuyMyU3JROSwxSQsTydlif1oSSxGD9DLKkHWoQpe74zRJLpMfe80g+Nb0CwXkkoSQjpyRtp5JZJPph+9sN7/5B48YsJleCAEOQFksbAMJDGaAkKj8Z9qG75w6lqXxBhXxBfX38sugHR5tGNRdjYXKf2caVEgcQ5I2enxqlSSEpHgSN/xMcskjGddzHfWWMRsAhYBCwCFUbAksoKQ2UdWgRqBgKG9DhTQ3VIlWz4lpBOvCzCfqIQxYFMQVKILYoM4aQ/nV4vIVM+wSRyYRIShX1PMSVMCSSJndloHTfqXqetQUi58Idhc7pHtzVSXUwXcaQdSeuhjEpf4IBETlONdDBspol2Gj90JBm2TilpmMhDSdhqD5LI6Xa1AymleoBKb4tdW24xXBU6GuJYkiCNp4SYc8W305SFq/O9vbcIWAQsAhaBQyNgSeWh8bFvLQK1AgEnIXLeuxIP8kQJJmd2jaSzJFdUNKf0UI1XPubNQQ5JQGlUbdL9FgTO6BWWEDa6oTSvRB+SjzQHx++yN391MhxhkwiqUcJbEm9JnPvjMr5ccfLJi/FxSrBUvEyLiwzvJ9aliaM7NDuVaKCwV4uARcAiUGkIWFJZaVDagCwCNRcBJ9Fz3h+YYpA1zKjjr8uQuJUYTg3rysaS6XVjv5+Rum3c08j7bf7hTqWJjHc/cXTGVW563Qk9OPxy/Rzs1NpYBCwCFgGLQCUhYEllJQFpg7EIeDIChqSZa3XktTrjqo782DgsAhYBi4CnI+CQRXh6Vm3+LAIWAYuARcAiYBGwCFgEqgoBSyqrClkbrkXAImARsAhYBCwCFoE6hIAllXWosG1WLQIWAYuARcAiYBGwCFQVAlansqqQteFaBCwCFoFjiAAXV1Ev1ey/yaQ4nw9XZ9WE4wzDGWbp8A5yz1X+JSv2TRil/RxDuOpM1GXVi4pm3pZbRZGqu+6spLLulr3NuUXAIuDBCJRH2Ghf3rtDwXEof6XDM8QFW4/qWewMlxvve/GoT+4x6iC8rn1HXVtXGSJ6qHTYd0eHQOmyOtzQWKZVZUz58+repxaRGfuqiteGW3kIWEll5WFpQ7IIWAQsAjUGAdMRu8ggmAB4m26IX5LCwyUXJjx6JznkFlCuDeldhNCER3e8V/eQTgaERmBP0hyc1pSCU5KCJDAsCqc/4XSm/AIcsYnz5XH0J090KiooOCKyW2MAryUJMeXoqhc8dAB7c+GwA60gWpSuQw28vXn6Fk7MwqEDPAiBe8dyX1vd/KuKiKWpN6xffv4heiKWHiFr95WtJbULJ6XVmpTahFoELAIWAYtAhRGArEePrdyzcbn88eWj0qBVT+l13n04ejPHFQb4gXbi3AAfhEFJBakiT1Qq6cRJQChZ5Dt1gruA0HBZO/snWTLpQ+l1zj3SsF1fPT8dh13Ct8uv+kP8JAZ/T/talv32iaTu3i5BoWHSqP0J0nP4nSCXkbJv91ZJS9ooUQktJTgi1kVESV5AZFxmf3p0o368Iwlyb47Pe+7Sj3TS8FQmlzT0QKLrCsv+JQKuehEsyZtRL754FFji1C0cRKDEEadYxTRpL637DpeZXzwm3YbeJNGN2sj0Tx+Ulr3+JZ1Pv0byMtNQTtwklhijfHAyFXE3ZW7KQt+hLrHiaHmV1CtTpxgfjalf+oB6543TtfKzMmT737NRJ+IkIqG5q15ggFJceHA9PbBeuOqN1gFWWK0XjjpUMuDRuOyfKkHAksoqgdUGahGoHgTYQNOYET4b8DINT5spkR4ZwlCmuzIsGYfxYzp704nQuXlXhtd/tDJhaz7Y+aDj0BNzjiK9/xhpHXFATNlB52alyfY1iyQgKFSfvRTnkvoAQunj7w8JYijK0RuSoXyc+c4z3l1HbbJzDggJ16nrQr5DZ88wM5N3yPa1i/WsePrzhxtfX3/Jzd6n0iwSBf+QMNkwf6L8+uG/JTKukbQ5fqjs2fy3LJ36taRsWy0XPTtNVs74VqZ8/KAMuek1aXfKpbJv50aNzxcSTdYxpicvO13D9A0Mwvn1/ji3PlvTW5CPs+lxPj3T5+MboMSlAOfUF+RmK7GsI8V82NnUeuHjowOBbWsWqv/I2ATliPgCJSeDEuUQCY1tJMHhcSjjZC3r2CYdtB7QAwcEVGfgkax5ORmQOuN0LHyz/kFh4usXqGEWFeZJbma6+AWFwK0v6hXcwb23r5+GX5CXhTLDwCOQYfm6wkJZe6OMs1L3yI8vXS3tTxghZ9yNAcnOdRigBGudMvXU1AuG74X8FBcW6CCqCHWPcTEdlIJrHUK9ZZ080jZQM2T/VAgBSyorBJN1ZBGomQgYQqcdha8vGk1MY5XBK4sK8t2N6uHmxMRBf+zUaVySjUMcaaOuDv2HadZGnlIppJmkwVvP/C5Q4kCphEocSiRp7Exsp3BoTJ1vXdi6iCUJmo9/oBIvdv6U9hUBVz9gngYit3LGKNmXtFnimneWtgPOBzkIdZE0EMxlkz+VpPWLJaJ+c2l7wnkSHNlJy4Vhklj4+gfJovHvSubeHdL+pIskKDIeYRegQw+Urcv/ULLRc8Sd0vv8O0Aat8nE164HUdkta2Z/LxsW/KLkcdWssSj/EGnW7TTZtXa+rP7zexCLJElo20va9DsHxCRUtiyZJrs3LpXEHkNk1R/fSmyzjvqOad+4YLIS2/YDLoR9J5CKLM0j8XDWXyc+dfXe1AsfkDuWYfNuJ8v5T0yQ7LRkfH8k8gWSvHWlNGjdS0KiEyRj73Z15+Pnj/IGecO3yvLesXquRCa0kA4nX4I6Eaf1Zd1fP2tZFObnScMO/VAfLpY1f/4AafQm1J1zEF4DSd2+RtbM+UmadBwg4fWayfwf35C9iC80uqHWn9CoBrJowjssOR2EzBv7irRHHFkpO2XeD6+p/wSkrR3Kmm3G+rnjUXe3SFxiZ8T1vdbdTqddLTvXzJONCydB8tpR08i2i1JZtiPWVB0CllRWHbY2ZItAlSNAYkbDjiIHEoWCvFy952gd1MHdoQaERKGTp2RhP+PUzqWc57LekfllQEJFo52II243QSwnPPo5IEykV59BbKhX5+3nq9Kr3Kx9EhAcLpENWiG6IimArp0fyAY7QEpEONVFfzQmL85wzb250p3z3vlMe083qi+HTKqEGWxAp465Chtl6eMfgM58tYx/5SrJgiQnrlErWT1qoqyfP0HOvOtTJYwTX7tOtq5eIAktO8v6xVNl+e9fywWP/azSJIbpHxgqf337oszCr+tpl0lwFAhlPqSc6LcpqYpu3I6Ry8yvn5TNS6dIYxCJ3piCr9+6hyz8+S1J3rKS3AHkYTmIwSbZsWqO/PjKNeKH+hAOArL6swlKUoY/+B0I6CSVcq6cMVpSkrbKgIv+I3O+e1Fmf/cKpva7SfaGJbJ27i9y5u3vSnzL7lKQnYV0UlfQmtIIGBUClmF26i6oKHwJiXAGq4U06thf9kKSPHP0C1oH4lt0dtUfvoSZ/PZNsmXlXGkIzJdO+VLL5dxHfpJ1836Wye/dJ80799dvduon/8WAZb0EQdo5e8z/ICkPl94X3C8zv3xcFk36VGIxzT579HOya8sqadd3mGxcNFmW/T5Khtz8puxGfWBi9mGgshODjGZdT5WfXrhMciDJjE5IlOlfPiXbVs6Wf907UtaCoK5GuUfXbwI/XrJ35yZZP2+iDqKoq7tqzgTJTN0hAy5/UnIz0lA397eLzI81lYuAJZWVi2e5oRkdIJfuEtvZ/Z17uZ7sixqBABtg0wjzWpOMqUec/pv28QOyedmf4hMYiKkif5VEUWJDM+SWN6Vx55Mw5bVPySW3dikqwKid+aHaE3WVYGf00ThNpdPQ8EuCCjmXkrPJb9+iHcyIh8bAf57WY/NOdZs4fY0wNV2FJeGVSBpZ491T27ine29IV3PSU2TG5w/L2vmTYesyiZCe9L/0MQmLawL9vR9BPv52ScGod4d0M3xTFkUFroUEJIlMNw36So3LpVtVstoYul8HpMtBil2xeuZfTmnSMO+afwqGSQhDQ2XBz29IWvIuGXH/SGnd72z586un0GE/KRsg4fGDBJKE8vhz7pYBVz0lK6aMlNmjnlHpEacbaRZPfE82LpslPYfdJH0v/K8ObEgSvaGun5uxTyVE+VnpsmzKF7Lqz3H645Rkl1MvllOufUUKIUGf+vFDcvwFD0Bf7zoZeU8/KcrLkbMfmaDE87d3b5cFEz6WzYt+U6kZCl2lY8P/M1oyIbka9dgISex8ogy86Q3ZvWmpjH3mYvlr7Msy/D/fKqk0gx1NrP1zAALmW9mxfpn88MKV7ndD7/xAB3Yq3YZ0UusM3vqDFKokculMlPfN0Iu9Q5ajXH///DH5e/rXKqlmIPVa9ZB2/S+QJl1PkSAMZqmTOef7V2UTBhVdhlwjW5b+LrENW0hcs85avyLjKaG8GJLMc1GGKyS2aXsZfNOb8sld/SURYQxDWf78wkWSvGOjnH7z69K8+2ky47OHlYBuXTFDgtAmsF70PudelbJ/cXc/2b11rVzyzCQJi2kkH93WS3aunofFYZBeYyaH+UHLxKRaUwUIWFJZBaCWFaTpAPnOB6Nn6iWVtPVlObd2NQiBAk4dl5AYc60pydN6RQV2kKl6rbqLf3AYOvNUdPQzJTImQZpC6lBcXCBRDVpimhI6RtRdAqGgXlpASKTmi7pI1HMqBEmkPUf7gcERWj3plg1xAVfrgrzlIGwq+tOeU0++0HOibhR126jbpDpMCId6UQxL9d9KJI3U0+PUE91zio1Y+gYEy7yRjymh7DroMmnS6WRZBUnUqr8mgHQWysUvTVUJxspZP0n7Ey9UCUhuepquIOZUFsPgFGwedPkYJnW6DKllp5gHQqM6XCGhSoKpu0UiQ7LtDX3BumDM4IC4uOoLF0NAxw3lk7pzA6TOMZAadZT03ZukQbs+cOMtXNzjh/rC+8YdT5B9uzZCgnWCXNZnjkp65n73gkJHQklDos9BBsuAGKsUGOQ1efMKaX7cYJCGS0BGl8kOTEku/e0zWTDxY2nVZxiERq4yYN3L2L1Z0vdshySqmYRjMMFp1wZt+8nCXz7FdOwqFw1AeXc85TKJb9FNlv36CWL2kuRtq+SbBwdqPQ1BXoow9Zqzb68+a/21BIJFdJDRPgi2CYmdlNTnZVOXNl8atOkt2yEFJHYHGPCw3ZuW6Te8Ztb3+p16+/gLMafOY49hd6rke86YV1V6nJDYUboOuV5nHRq1Pg56mYtk06IpSg57DL1eYhq3lQEXP4RFXJ/K1/8dikVckZLY/VQsCBqKst+mURdC2p2TsVdSd6xX4jgHks1ZXz2BdsxfwqLiJG3XJm0D8AeLvVrot00JfCB2HAhE+0ZJdWBwsIalbTdnJ0pl64A82oejRsCSyqOGsGIBsELT+GGqLy01VXLQCWsDXzHv1tUxRCAyKhqNmI9K7GpambmmcCl1LJDuQ29GYxotWyEJYGcf27yjDL3vc0nftVkmvX0zCNuJkp68HTprCzC9+Yn8NeYlWTd3HPzmS3h8U3QAN0A6dBzFWNBpel9WzfxWG+mENlg1PPxuXfWrOptolINCY2Qt9KcW/PymNO86ULqfdYts+/tPmQv9p8yUHRJRr7n0OvsedP5dZeFPb8p2TGu27nu2LBj3FvSjLlZikJueqkQ2BTpWXiA51Kdrffy50rTbqRL+9TO68nPGRw8j3NlQug+QiW/coGE2xVTY7NHPYlp0Esh0kZKd7kNvlRBMvf75zdOIP0mJ0AJMrw644imkpZn89u6dkHaukKCwGDlu2O3SqMMJko9O1OhpHsPqVaVRa7uDflT1yEAq9RnlSymVPwYSARg8JG9bD1KehqnqXrIFgxGSiZDIeqpywHtKBBN7nSmbFk6WcV9eLp2hr+YPFQWG2Xv4rapbN2/cu8C8vzTqNEAlz5ReU63hd6waTtq0Us57+Dtp0edf0u7EC0AYdmDa9CvJTgfxUwLK7WOCUX4JmE4P1oUihUWok7EglqivLOOg8BjdhohxcgBFNQkOIDgyp34dJZ1ckJS0brFr8OTvh3pdIomvUoRrZ+BKsDjIAJ7ENrHHGa7ygB11J526hzoYgTsvbDvEhTssj86nXamrwTMxdU7dxWgQxLRd66Udvu2Trnke5bBIfvvofpn49p2S2PMMaQ0pJNukWVCD4OCzVe+zVIc3JKqeDL7lHdWZXTjubVVviIhrJq0wHU5D8hgcEY3BJMvaS/pf9jgkn63V7y7E0RCDoJ2r/9J8cLBoDCWRrOOufDLt/KH+Y3bEmqpFwJLKqsXXHTqnEEMx3TR16lS5+ZbbIKEJcr+zNzUTAY7kcyDR6n1cV/nwww8lNzdXE1qTiKVTr5AkCS2nrpZlZ8sVmbmZqSCSW2TD4unQg5qHTjsQulA9MEX4EvSaPpMu0IOjlIorcCkNuOLVuS4due9ekiYdjpcIkM2lU75WydWI/47RzoYEb9PiKfLLO7dLdHwTadP/PNmzabmMf/V6iarfVNpi6mv51C9k0ls3yYVPT1al/3ULp8iOtQtB6iJLpKVIn1ehEpemXU6Vravmy/fPXS7xTZ5USQkXYzTHb8WUz7FSNFjSsRo0LKYhpkDrQVLxmE6JtuoxSIkFJVkp29fK2f/9XtjRbF4xWzYt+11CwqJ1ymv8/67GIoS90vHUS1X/a8Kbt8iIf4+EAn87SFhz0CF55lSYTv2iPhRACkgisHbeb7Ln3v5ah/kch4UunUAOiNekt26GlOh0TFN/rtLuxB6n62zKXBDzP0Y+KimoG2v+HKvTiidc8qhKERlGfGJXadH7X7Lp3wNl6kf3yogHx7j2pczLU6LQCtvQcOX5Dy9eLk3a90V93Ie6+LtwtXGDtr2FC3QYztzv/wcyEyidBl4p0z5/VCa+eq3Ub9lD5o97XyIgcW9+3CCZM/p5dUuiW4iV3/HNu6Aud5U10J+LbJCoq5QX//qF9D3nLl1dnJOborq6NbN1OXapMvVCSRewpzQ/B+0EZzhoOJ2sMwl4R6Jm3HEQwAHFbAxGl0HazAHm1hV/yMYlM+Sch75F/RijUuVew29Bm9JBCV10fCOVYHMbqWi0DZyWbtK+jy6mSsU3O+HNWyWqXmMZcNmTbLrUhKC8zcPaBb/KlPfvlQ7YGWD9oqmycMK70gLtwt/Q7c1I2y0d8E3nYVqbdQgRKnHMx+r/7JK8sK3ORrvoC+kljarIUC/bSq8Vj6r4Y0llVaBaRphFaAgppVy1YpmkF4fKqZe96FKMRqWvSSSljKTXSSs2UtyCZT0azOXLxkguyAdXPuoCGNP61QBknISI+oMkwiqVYtoooYJ0gVNUnPoOwR6Bw+7/BiP9tpAu/aXkLRREjZKo8KgYXRTD7UP+/uMbbAHTEErwX+gUOVfZpmOaKRf703GbjvTU3fIzFnCEYHrprAe+hlSrPqSeL2pD3qPnTZB29sT+g5tV6rBm9g8qcaSkoBM6ANW7y0zG9HM6yKUfrpnS8+y7JAzbl5CIJm9bI4smf66/TqdcJEPv+QILPKar8j11LP0wvb/415HSqHV3OQPSVhJOTpFxepyEMjgiXkul1/A7pPe592m6dq5fLt0GXwESczy5NqbhXsAeix/JoJvfUmmlKpXWgLKs7CRoBwppDacBGwIvSvgolWZZUIWBagMk7wOvfQ54fKz4h2Prn5MhyQ2v11STM+SWt2Te96/ICpRNIEj6kFve0EUwezEdzTDZOcc17SR9zr4DA43fZMvy6RhUnK8Dmnws/Ogw8HJd1U3/lGRzwVXLHqfJcf+6FQspgqQppOfcaohbDFGS3Ouce6FqkSUrsbp75Y5R0rhdT+nBPS2hmxce11jjDEI6dKN01PfTbnxd/sSU6Mrp3yjJ6XnmddDN/D8lr7rNDPRmnd9IZWNcG8Mz9YIL4liGcc074btgfXDRAW54Tukl34WC4Bl3EcA/GJJF1om5Y/+H2Yz3MKgLkZOueBKDi86QLINAot1ci9Xeq2Z8J/UxU8J9TFEAEtO0HWYH+ul33KL3UMBWjC2LGshZ93yC1d+vQa/2PlW36AXJd2LPIdon9h5xu0rHufNAD9TJQde9KIsmvi8Lx72j6Rp0w2s688AV6EwrF/Rx+r5eYhcJhaSd+eEAhFPvVPUh6aSx/a3CUGV/LKmsMmgPDJi6QxTF+/n5oBOOlnpN2qoeGD84W8kPxKomPLEDZmOais2ZC9dyzzxOHdb8AYBOb5YGEGkvwOKH6Ea9dZo7NytV9u3ZIgt+eB2j/AwlffkgG/4gnpRsZqalSnyztsizN6aZNqoSPfEogNSW0okcrKAMCo+SDOitUem+Lbb2yEjepu4pwVj8CxT9MTVJKRIX/xQW5Grj3hISLe5jWAgpFsNh+NxTcMmsDyARbSbnPPwDdLPWgxwuwArRJ3SKtM+5/0ZuXJ0B96WjFILblUSA9JCQUmczuiFWiiOPOel7EE+B3jeGZIQEOX33FsTlC73M33RFKMk10xUQEoEOCOmoQQOE0sV2tM8cYPA0klh06Oc8/L127s78UhqVB8lhuwEXSBtsFUS9WU4pc4qQ2NI0aNtHF73kYRDAvSw5UMnClGdizzN1YQ8XP2Rj658ew2/XhRJ0R4k5F2BRIsb4uc0Q48iBpIvbuvCEHa7qp7sgbG49GOTeSMO4g0E3qFJ0HnId/OagnMLhNk+ysAVRx4FXSJfTr1XpM+sNVmK5/bNucCqd+yvmYRqcxpJJheGgP1ovsAE+yRjrBeuB6hiXrJTnfT3orPIdvy8OsHlPvdeslF1SHzMdwx74Rvsv4s3vmNJO6lifeMXTqjPNLcd0/0hUGOphzvjsv5BQ/wYSGCXNugxUHezCojyo5AyQpl2wgBDlR0k1Z0F0/0n0lb3OvlN6jrhD08962gZT6FxMxnrDPVCpo52dniw9zrpNep99t+4OkYddDE7FAjAOrBkOVSDOvPtTJZQc5NiV3wdVh0q3sKSy0iEtP0DToHOUzc4xX0+2qPlEpfwcee4bjnApyeHxcjq1gqx6cUGMi9/U+IyzoSfRUkOJJRpZkjOXtKoAU4nPSQYWvFz18kzd5PizO3ooWeRWQWFRsdCP2qwdBcnej89dpFuMcMUtF/VExjWQwbe+I2OfvUS3BGkBxfoYSD83LPlDTrr6OehDDQfZnK5bfTRsf7wkbVisHQ8xZRqYNiW/3gATaZw+8gl0WIVy3kOjoJN3IhaO1IP04k1sJ5LkkjagU6MfSl1DYxtCahWB/QpdCwYogdiBlZ0smLDYxtqJUBqm+lUIO7JBC+S5QDoPvArbmTyAafylsuL3r6R+i+NK3HjuYh2d5uSKeGCbk5fqqgvOv8g6pe/UT+RiHkq6nfd0yoEEDQcB7JS5Ob2SkoIcHRCwXtEfO3AugNBnxGni5pW6jgzfD/qSrAOcauUzF0qxLWTatG3UKusl1LU14ex3i8Vi0EPPL+bABnGqygLyBskU3TBNVPfIyeUCHdd7kwbNgP3jRsDgQlKWQ6zxneguCY7dENzlgh0TODA07rjwheVQ7IWFbqwTGIjwW9b9KzEY4U4OBn9u30PpIYnp1hWzJCQ8Vrph4U5wZDz8ZYBust5QZQf+vbCADgMQhq3+kVpTF5lwntrDAanWU8TLTdXZujFe1tF8pMEdL9w56yLrHw3TS2Pyrw/2T6UjYEllpUP6zwHqR8yGr6TjtyPqf8as2l1gZxptpEBkzGAANkhGzWWV2liig1CpDzpvPVkEz+zISYwpraThAgpON+/duVmmf/aQdgS7t6xFB0BJlLcezfbr+/fJt4/9Cwt/IvU0jU4nn697U+aAgNDwaL6eZ96ge9n9+s5tcvz5/8EegRNlwus3YVrsXWwVMh/T7RHS/cybNB1KKNnwa3pcHQBXDDP8E7B33bQvHpfRT5yr+lXZkEpko3PqeOJ5SGdD3dSa/sc+f6GcevULOtU6DduYjH54iEo3dqxbArfnQiLXUQkGJZmMh6dqNO8yCFNjX8nvIK7UA6UkNDV5p5z74CjNB8mopxrTrvBKUliWYZ1hZ8ur1h909OzAeU9jyIaWHzDl5tjqju2Xo/fQDtvBz03cDMOE7z6lxxGHy12JR0TJWElcykoP08Iv0BiTDpahSe8BfpV4Gtf2ahAwZVO6Xhh7ujvgHUA39UcxRznw+EMX5vvrBP058ef0M/eJ5H6UFz6NTe4xY8ABH4koCaXGgTuGo/XL6Z/3JfWS4SIF7me6dfWhJYOXUvWidF3UZ1cgrpBsvXCgUfm3jmah8gO3IVoELALVhwBVLDhFxQUt3IiaG09TShAQGA6dwiuxrVArleygNVfF+MWTPsDinHU4i7k/pqBOxpT4Zixo2aM6cUFYRb5q5nfaAZx0xePYzucCSKqysNjlMu0AOB3JUy64LU0+JANcMXrWvZ/LYpwHzUUzHQecJ10G/59OX3JVsC+kVJQqcqrNSBTQbWj4HU69XE/W4CbG3LomGptwcyU4V4hmpu6EdOMGkM8o6N2t0b0Tu2BqlGGtmzcOnVa+nHzlEzo1lo2tR1r2OQtT9510sQklVz4B/nL6re9iG5tPdZUqF4cMhtSSemTcTJ1pqcvGEAlzNVg4n533fF/62fgp62rcmqvTjbEz17LeGbtDuSn9rvSzCcNejx4Bg625mhCdz8570EXjBFLpfLRPuUoOOTpQgqoDHudQ4cD65QyLAf3Tszsye3PMELCk8phBbyO2CFQuApTkkEiFYbHFgCufQSOep7pS1JPrf/mT2qi7dOUK4aYhpqqfx/QRdN9A9Cjd5OifOkncrLopNh1ugW1kYKkdQR6mm2ioME9DHSqe0NMHp6OgpdeVo1S85/Q3pRqcZueUKKfAuDqYW4roXpKY7mTHYDoULAHX6Stud9S8+2C8A8mD5InkmIt5sBWlnjPca8RdkJrx/OBM1aNq3XcEtqe50JU+6uchPQUFmdIBmyhzSsycvkMVSx452Oe8+115pcQWeoCq9wd31lgELAJVg4D5xnk1xil9LE0QjRt7rd0IWFJZu8vPpt4i4EbANOKqQ4cFDyR71Fvj1DcXQFBJ3UwFkbQVqE4vvJvpoBKdOBJJkjISRzWUJpRMVzn1kxgfda1oSAY1TEg6XYZ6Wi5dLdV5gj4eyaaTUJr0klgyPjHxMQBHnPt1AjltjjCwByL1qySzpLMybpFXLhRx6lMxKNUdw6Iio7qg+pmKi8u/7dyIkjUWgcpFwHxX5mpCL/1s7O3VMxCwpNIzytHmwiKghI0wsNGm/pIxpZ/VDQinl2+pqV/HI4kbeORBxpBSDUPjcUr7EG/pMOHQpQu3PzDTqTiv5cVXdjwI81Dp2x+Vpt+Vf2c61dqNl+vJ/rUIWAQsAhaBo0WgVPN7tMFZ/xYBi4BFwCJgEbAIWAQsAnURAUsq62Kp2zxbBCwCFgGLgEXAImARqGQELKmsZEBtcBYBi4BFwCJgEbAIWATqIgKWVNbFUrd5tghYBCwCFgGLgEXAIlDJCFhSWcmAVldwZpsGXs2PcRv7f0qHcWf8ln7+J//lvTfh8b25N1djV55fa28RsAhYBCwCFgGLQO1FYP8S0dqbhzqXcpI0rmjllXv6qdHhwYGbyDqBMX5ox7N91ZRcNIwS/xoCwj4S44xD9z0sOfqN9q6jDl2nKDjdHUk81o9FwJMQ4DF3zh+3RLKmZiHgLB/eV4fhxuEaF9tPxmnrRXXAflhxHFAvHBu9H1YgHubYkspaWKBKKEvSzZNKaHgGLs9rNWSTV6cxzyR0voFBeIVNp/Nxzir+8Xg+7uXHY/10z0K4Me6dYfzTvfFD0uofHAb2irODEYePv7/4+gXoxtokl3RnieU/oWnfezoChpxw03n9WPjB4BxkfJLW1DgEUC5KGtA2annhqYrJJdtmjZN1QutGjQPFJkjrhIvtu8qr6utFTQfdksqaXkKl0kcyRsMGzRcnmswZ/ZwetdfhlMukEY7D47mq7lML4MacqQom59oIG3ZJ6xYrCY1t0kFystNkwv+ukfjmXaTnOXdLITbE1tFXSTzmfHKSTZ6SQuMFCaQJ17mhNd/Rrx+I7saFv8nyKZ/J3q1rJDgiBie0DMSxfde4zhKmpBTuuKk1jXMzaiWd7kYb7kiOcTFH+5GwMg5zvB5CwXsXJs60MK16bnGh6505k1bjK0W4NRH2j0WgGhFgHeY52oX6LYj4BQTjF4JvFAPDkvpfjcmpkqiKOIBEXjwhP1peOIGppAnECVSuvNG+Mg3D9WE8uAI4rRNsK7XN84B6YfDyhDrBcmd/5RcQJL7+QaCX6I0okEE5aflVZsWoRWFZUlmLCotJpZSPU8vshPZsXiHzJ3ygFZt2TbqcpASLlZsNkV9QiLrjh8wTSIry8nDkXZT8/umDkpuZIpe/MkfPhub50IWFuYoEyaIfjrXzCwzR53ycdFKQ45Jo+geF64dDwkbpJo/3Y7gkepoukET63bpsukx44yYJQPwJLbsr6Z095n84E3qNDLzhNcnLS9fwVZqJWPJx2kp+XpaSYZ7pzJNZkFPxxcfKowZJOnnkH9PmExCoH3A+nimZZRjEgmdK52Uhj7DzBtn2C4zEkX4Z4hschJC8kN99mkbNVC35w3IzjbBKsFRyUUsS70nJZDnwm6pEw46HZRsUGop6myqT375V/FnfSSY8oJwpY/PDDEUBZlCKMbCrXPQqsSAqHJSLLBTi/OqctCQJDg3T8nN/nxUO59AOOdCgCY+IlLRdG+SnF6/kWVYl9a/2irBNyn18XadqFeQVeECdYElhcIhBQDaOo43wzZUA9E+sE55CmpnDwzWWVB4uYsfYPSWV/Pn4B8q6v35WQhkRU1+2r10oKdvWSHh8E0w55+p5x9tWzJKty2eo2+bdB0ls0w6y6o/RODt5r+Tm5criie+rBLHDyZdJcGScSi/9g0Nl+8rZsmXZDJAwX2nW9VSJT+yiZ0ivnfOTePv6SUhkvGyY94sER9WXln3+Jf4goJw+58fk4+sr6+ePl0KcQX3idY/LcSNukuRNa+TnFy4FqVwnWSk7JTS2kezesATuJmpemh83SOoldsWRf3tl+ewfJCqhpX6U2/6eLeH1minx5bnQjGf3xqWSBL/Nuw2U0JiGkIj+Ktv+niUhSEurPmchH/FojDci/dOlSeeTZOfaBUhLrrTpd65eWXxmmv4YF2W50ZuOytkwgU8j4ZTQmua5XO/2RSUgoN9ZSedQFYTIlG3DBo3kqy8+k43r14gvj46shLSnEqqPAABAAElEQVQf0yDQNhVSeuPvJ2PHfi8dOrSXVq1aYaBYqDMlxzRtRxk5v7wCDKAbNmmKPLXW0AwJPMqg3d5NeL16Hy9ff/6J7Ena4RH1ghJ5XxDKRYsWy65du2Tw4EGSn18gviTRtbxNM/WiTfuOEhrmGmyYcnQXbB26saSyFhW2dnQgFt4gbrkZqbIWpDImoam0P+kSmfHV07JhwWTp/q+bQTzw8U54T/74+lkJi4oDycyXeT+/K6dd+4JsWTpdMtJwDjI+5NV/jpWI+s1l0nt3S+N2veWch3+Q+T++irCeUX+FkEjOH/+enHz5E9L2xPNl3g+vSkrSVomIayBZCCMbadi5+i857ea3IOlMVyJIQhQR3xyoFstfY16SpPWLpWGHE+S0G9+QgNAIdCz+sn7ueJny8X/EH5IMTh8s/u1zGXLja1IPUs3fPnpIouIbSCbOlA7AlEL9lt1kzbxJMvzfCdKs22ny59dPytY1S6R1vxEy66snVVIbU7+ppO3dpYR5+H++k+Qtf8u0zx6V+CZtJWnzSuStp7Q78UKXzigkREb3pSYWPfFjg6QLnVRlgVNhmMpH26vSLXTallhWXcnxG6NRjKlZgfrpgzrj4+MLQgHpCspH7SCdOBpjSCXD6HfCCfo7mvBqot8HH3lCTjhpoFxw8eU1MXk1Mk2mXrANGHz66TUyjUeTqCXLH5JFy1bKR59+cTTB1Fi/bB+0nS651tiEVmHCLKmsQnArO2gSi+ICTGuHhMjGBb9I6u7t0ufs2+W4s24F+Xtb1kDK1+3MGyRjzzaZPeYVqdesnZzzyE943irjX7lKNiz8RQbd9JYSPU5bD7t/lORkgGDC+EMPMnPvdvnzu1ekfvMOMvzB0SqdHPP4cNg9L4k9TtdpZ05NnwiSGQfp5agHT5ctkGpSwkidkiKvQp1y7jjwcklP3irLp3+npI9T9BEx9ZC2G4W6n3+MfAzTR+GIY4wUYup91GNnyZ+jn5Wh93wuIRFRkrJrm/S/6AFp2ftfShBJKrdCclofpHP7uiXStu9QyQKJZLgdBpwjp1z7skptx79+syyc8I40bHs8GZhOmZ9198cSUa8pptgzQRRcU0uVXS6VGZ5pkMIjoyQHKgqZackS37iN7AOelBx7YTJMiQ9H95ZgVgr0hkii0rjDI5GnWkdgWAT0lHMkNWmLxNVL0A6jMqQQ7HyM8RT9K+ajEDMW1Akc/e1oWbtmjYwd853ceMP1UsBFhPgmKwM7g9uxvDrzwXxVlnGSEk+qF8wXf+PG/SyLFy+WyZMny0knnaQDNGLpxLOysKzOcMxA07Tf1Rl3TYvLksqaViKHSE9xkUu3hh/gmtk/qsvkzX+rxM7H2w9SuVWye9NyyctMw5RxrjTtcqqSvcDwaLnkpVnoJPMlD3qG1FEswgdeBP0g07lRgpiyYy385WDa+GTVeQwIjpCENr1kxYwxkrpzPeIrluDwKKnfqgf0HUN0Gjxnx/oSSRrkf1zAg444H0Sx97n3S7chN8iOtfN1evrvmd/LjC+fUl3MPKSNulY/PHM+CBKkcGiUc5HmLOgq5eNdw1ZdIXG9RRcdJYT0BiFNkG0gr1FzW2MaLV9a9T4L4c7TfGxfNUe+vO9EJZGcuk/dvlYSkD5kDNLJC6TV8cNBlndoGr0xvVjTDbFgAxUbGy/XXHGJvPLuXdL/sselRbeTkSWS9izVOeXgguWo0+IlmaJ0jQTJSjIPXcoGo/1kEu610+PCMUglMXXr5x8mPn7+qlYy9eOH5IyT+0ivXse7O8FDx/DPb51EhCTMEwzbJeaF17ffeluztGDBAtm6das0adLETTg9Ia9VlQdTL3j1lHpBrJiXhQsXyt9//63Qvfnmm3LaaadpnWB9MfmuKlyrOlxPKqujxcqSyqNFsJr8swMkAfT1D1CdQZIpH19/2bTiT1m/aCp0KF0La9bO/l5a9z1bU5WdniwBIeHQJcyRPz5/CIQuTLoPvRHUELqPmCIPiojVBTL4ouG+GNLKUJc/kDv/QCzKAbmhFJLGPwhbBMHQH0kPtzBiOGwM+NP0YSU2JZY/vXiZZEDqOeLBb6Xb0JvkuGG3SvFT58lykFPXgptiiYxtLCf93wuQIKZL9r5kNC75SGuEa/ENFvtw8RDJMfU2uQDp7xnfyZJfPgSRjZFGmE7n1D0X7rTocYa0HXA+0pkC6eg2CY9tIlnpu5Vk+kLvNA8SWUpXvTF9aUhETSZdxJKNLDF++NHHJbF5c3nmuadl6S8fSNPjhkizTidIVP2mmp98bAHFvBVBvUElaxh0qDQb5F74KzF1lWyyvE3eDRYkj9RNLSqgDd/7gDz64lsKAJGEtB11ilLJ1Ssmybq548Rr3ya566pL5N8P/le/v9re+blxqOQbtk2URvphkdy0adNk1qxZWo9TUlLku+++kzvvvNNjCEQlQ+fRwbFeGOn1qFGjsEiTCy+9ZNKkX2TZsmXSsWNHWy88rAZYUllLCpSdI7fg4UrntXN+lvSUPdLjjOuk9wX369RuTkaKfPXQGfL3zLHSdcj1OoW9bNq3Eo1FL+nJW2TBxE+k44nngRyGa4737U2SmSMfk+bHnaZSmtysNInBQp6E5h1l6e+jMWWcCElhFgjrNBCZfhLZoAVWqaZLXq5rlTgbhsL8PKz+znR1tpSS5UH/LNhfGrbrK3N/ekvGv3yVNO12qq68XjN3EvQ0Y7GYZphsWzFT1i74Dfqd08QXZHjumJelEfw07tRfJaUklK4thHxBmPKkZa8zZemUr2TXpr+lXb9hKkVt1L6fRETHY7HPBCxA6ijJWAk/b/wHMviGl4QSVpIHps8bU8Y0bNxqg6SS6SS2/JEoXnrFVXL+RZfIZx+/L9+O+VGmTv9YigPjJLpxe5DrvhKDcgmLriehoVFKzJVkQprL1fD0z9XwLmkmygc4UJqshkJbc++ycROwmky6yySKJeknWTQbRBfrPYY9XOAE6SO3lOJWW94+fqqTzAGZD+6zM1Mlfe9O2btjg2xdMVv2bl4ukp0kiQ3j5NYLBstV11wnUdExSvJNuZjo7HU/Avp9YTBE88Ybb+g1IMBfcnJyZeLEiXLHHXeotMrUb3Vg/3g8AixvDjRIJn/77Tdt16hLz3pBaeXbb79tvy0PqwWWVNaSAtXOFGIoTv/u271REhI7Squ+w1ypRwcagVXfHU88B7qHf0ha0iYZfMvbMu2jf8uc719TstD5lIukz/n/0anpToOukqWTPlJJTMP2faVByy4SWb+FErGBWDAzc+Tj8hdIoTeITaseg6TfpY+oRCymSXsJhfSQhqu9Yxq1UZJLyRrTx06bxLMHJJPc8Hzl79/IvHEfYNWfn9RHenuNuEu3NOp/2RPqdvaYV1Vq1LBVd0yX36ekOaFFJ4lq2BrhYZsiTFeT2MY36yIte5ymuqEtew9TKWYwpKwDb3hVZn39lEz55EF0WL7SddBlqofJVe/xjVtJaFSCSlRrExlgWtkQ03B6m6N8NsLXXH+z/jauXyfjx/0o8+YtkL8mPi9LsvKl0D9c/IKjtTyiG7WWaBDNkLBoYB0JwhmL8vdRwlmMsIogonNJNbHfJ0knfpT46v6fSsBQDUqIGNQ33cZNRo2N451alSKoxlmZVxK+8kxJGvhaiaFx57Y3RBEvMJChjikHCzoI8eJ2Ja7pV0qmDYkkwc7GoCsL0uws6Kim7Nwoe7aslL3boO6RlSze+ekSFuAtPbp3kR4Dz5DBQ4ZK6zbtTMxYpZqPOgx91gPKZr8k2O2wDt8QG20HUHcplbztttvkvvvuk4EDB8rw4cMVQ12YV1K36zBUdSrrpu1lO/baa6/JZ599Jmuga/vwww+7FmqiPvDbssZzEPBCB3aIFl5kz5490O+K9ZwcV0JOCBk/lu3bt8uMGTPkdKzSMx0Or2UZflRRUVHyzpuvyvMf/ihD7/xICRg8oiMs248zHKeEhu7ZeRoyYNz5YERIMkYJnS/2y+LCDk5fUzoTGIp9G7EXJMkD938sLMhFh+yatiZ5Q2CwK1Ay6AP9yhxMnTNtQSAn3KKIU6zemCakIRkh8eD+XAhC4+RUuD6AXLKz5/Y/+dlZ2L5oDzZpD5TA8Bj1ywUzJJw+OGFHp9YRL99x2x/dY5INDOxIWjV9OkWJDkunr13MwmxfxE3WiUEuyIIP4uDqcu5NqYblAOd8z/Qc7qIW4hQQEiZr5k+R5FnvyaRfJrgxL6+MOWUdFBQkS5di26OkJDnjjDMQv+vzKs+PK7EH/3X64z2nFo2+mtP1+rWrZe5fs2UJlN9Xr9sg69dvkKTkFCn2wVSud4AU+wZJaGR9CYlpIGGxDaAe0BCLoWK1fFhG1EP1h/SbC7VYX4pBOlnXtG4hXupx4o/mQ9Nk7lneeu8qEzy4np2J4z2zX6p6u7DYb0nyTKP2/B70B7uD7rljH/5RB4tEGXWGg4481KlclHs+9lPNxZ6nWWm7sbBpOwZf2yQjZYdkpyaJV2GOeBflindBtsTGREqLxObSumWidO4CItmrt7Ro2UbTYP4YzEt3eIdbjia8unAlZvyRXNKceeaZctVVV8m552I7L3zPtLf41YWacGAezbdEiSWJ5Zw5c2TkyJHqiG2mqS8H+rJPNR2B8rihHSLU9JIrSR+JpCGWtCIBo1F79tzo27k3JJ+55VAhphvEO0/3q0RTr5uUU6rD9wVY7KGnzcCeAqbikrAo8eFm49wk3Wx+npcFksb+Xd+5TsDBE8JBlOgojGFnrwyiJJ252IickqKQqHroaIogXczSNHIaUo+URFo5lU+Tb+JAp1M6XwyX+S4syle3/MM88B/zQeLhD/LHhotT+CaPLsLj0qkjoVRi6Q6h5t+Yzpf5ojHkho2w6aBJMhNbttbfBRfvz9O+tDSsvF0pG9avx28dFkpsk+07d8iO9Ytk7ezdkp2TJ8VY2FWMwYOXTwBW7YNM4kd92EBsPh+AAQh1aP2h28prAIgnN7sn8eQ+pZw25rGbxN4Xi1m07FEmHIzQsHzUIOmse/peX+AP7DhFr2+Yt5Jn6jKyPvEdpfH5OZk6QMjDwCRP7zP1Sp1cSh2pQ1uA06O8UC+8irGyWEBacA/ZroRhd4R69eKkfXy8NGjTWBo1Ol6aN0+UZs1bSKvWbXQvOU1fqT/ElfgSV+JvMKczUx6lvNjHEgRMPSVOlOySKHAglJWVpZga8kB3Fsu6U21MefPK7ysnJ0frBe/5I9F01p26g4zn5tSSylpStiRWxjjv1Q6Ekh057d3vKH3EsyF+JFtug4bf7c5tif5d4wAhwH/jj8SBHb/58Om8RLDk8IlbBE+hoBI4uoEFwyssBoHQqVFXuBWNQwNHeEpKSvKmdiV/NBymDcZ93CMTUZZbdVRCMNVH7fnj7IBNA23IDp/5Y+NMw46cv/CICOneo7f+ysppRmaG7MEGxMnJuyUZMxEcce7du0dSU1Jht1f24JeZvUeyU3Ike3u2pEICmJ3t+hWhLFlNII/SegJWCtJAbH1ASgORFkzHMz0sc/xnWosg9SVpZD3iH+5MwCtPXKEpxI4DfpCCax2jZBSScB+Uoz8WpYWEBOsvMjgYeqMhEh4dKpERjSD17yiRUZESGRktsXFxEl+vnsTF1ZP4+HoSBLeHMoyHaebUP40hkQY/49eJvbGz17IRMFgRWyNRp53BlPbGTdkhWFtPRMCUOa/OesF7Y4wb82yvtRsBSyprSfm5pT9Ir/OeyTfP5urOEjrmssxB7spyVAG70uGUfnYF4SIXFQjuICfO8Jz3dFj6+QDPpfJ9SLcHeKzZD6UbX9NRO0f7zAHt+TNkk3bs3F16h14SGhIqoYmh0iwRerSHaTjYSM9IlywQU5LFzKxMlTxoMCCOeXn5Kp3iMzuODz74QDp16oTteHppemjnyoeXhOH0Cd5TjSIE0kWexsRrYGCQ6lsdZtLczk3+eaWEjEbzj7gMht6oI1zExWe6M/buQOyNRcAiYBGwCBw2ApZUHjZk1oNFoGYg4CRCznuTutJkU+1JOHFDIkXjJF5qgT8kYDQmTHOlHQlgBM4l5q8i5qr/uxbT6z5y2x13VcS5240refvTyBcmzYYoGsfO9Jq08sqf81155NH4MeHZq0XAImARsAgcGQKWVB4ZbtaXRaBGI2CIkrmWTqzT3kjxDGkr7db5bNyYq/Md72lPXTpOey9atEg3O+ZZv08+8QSmpuNVcugkeqX9O9Nl3hk7c3X6N+kw74yfsq4VcVOWP2tnEbAIWAQsAhVDwCWSqJhb68oiYBHwQAQM2eK1oj8Su/J+DIPT3D///LOitXfvXvnwww/Vjhb0x/dl+a9o/HRHY9zrg/1jEbAIWAQsAscUAUsqjyn8NnKLgGchQMmhLs6BLuOYMWPcmXv//fdl3759+s5IF90v7Y1FwCJgEbAIeAQCllR6RDHaTFgEagYCJIyUQHKvTq4qDwoKhP5lhKSnp8v48eNVsuhcQFQzUm1TYRGwCFgELAKVgYDVqawMFG0YFgGLgCJAQkli2bRpU5k+fbrcfPPN0qdPH7n88suxqjtQ35ktkSxkFgGLgEXAIuBZCFhS6VnlaXNjETimCFDHkauzKZ2MjIzE3pKh2Ii8niQmJh7TdNnILQIWAYuARaDqEbDT31WPsY3BIlBnEKCUksSSK8BJLvnLwwlNvPKkFRqrU1lnqoPNqEXAIlDHELCSymNQ4OxUzU+jd+3PfAxSYqMsDwFTPubqcufaN7E8P9betRqbmJmV3SSYZqU37WloZ41FwCJgEbAIeB4CllRWY5maTpVRFkNywzOx0cWyl63GVNioKoIAy4ZlxLMnDQkq4UQV8W7dWAQsAhYBi4BFoM4hYEllNRd5EZiJrx/ONI6MxdUPhBLH53kIqeRZyt44A9oTTDHyEhAaIf4h4Ur6XdI315F+npA/mweLgEXAImARsAhUNgKWVFY2ouWEV1Qi8fL3D5TNaxbJuNdvwdnJLh2zcrzUCmtsl41j/6hH5y2BQUGSk52tElhjXysyUWYiSf4DJXnHBonzzdLjCVV6iUGBpwwCysy2tbQIWAQsAhYBi8ARImBJ5RECd7jefCDBy8jMkNMGD5EHd+yU9LQU1Ts73HBqmntK8Kgzl46NrX/48ScZNuwsCQsLE+5FWNvJF5USijpHSq/jTxCeo52bm1vr81TT6o9Nj0XAImARsAh4DgKWVFZTWXLhQmFBocTExsjDjzxaTbFWXzRz582Xz78eLZde+X/Sp3fv6ou4GmIiQc7IyKj2QcABOri1SKGT6TaDCt6bVeDGrhqKrNKi4MCIP+bjWAySalsdMOXNAjD3LP/aWPamEjnL3Xlv3lfmtbaVd0XzbtoA5s/UC9YJmqrGtKJpPFp3pfNR+vlow68t/i2prKaS4ofESkZimbw3uZpirfpoCvILJC4uTkZ987XsS0uTb0ePll49e+ppKj6+nqFf6Y2pfUpjTYNfXY2FiYfxclBSmwzxouFG59z0nOn39/evTVnQtFZ3mZcGqDbWAVP2lO4HQSWmtpa9KQvTdpvnqrzWxvKuCB4BAQHqjFfWi9peJ8rLs6krpt0oz50n21tSWU2laxoLXv18sUDHAww/HE7rc1r4999/1xxNmzZN9yUkgWBeTb49ILvVnhfTMBHDnTt3yo4dO2oFuWS6KZlgB7Jr1y5Zu3atrFixQnJycpSc14a6wPRHRUVJs2bNNLnM07Goy846sGXLFh2s1eQBBtPLH4lDUlKSrFq1SpYvX65thCGbtaH8mUbWgdjYWGncuHG1DSid5b1582bZu3fvMal3lV1G3LeWA4z169drW2bqBOvysfiuKjt/LLdGjRppfeG9J+TpSDGypPJIkbP+tNENCQmRZcuWyerVq/VDIoHgc+fOnSUzM7PWkIiaWJymcSKZPP3001XqR7LOzq42GHYYrAO//vqrzJgxo9akm9gaIj9y5Ejp16+fpv1YkCKWNXFcuXIl9JWH6UlFfDbko6bWA+LHQcTYsWNl3LhxtarsTfkT+9TUVPnxxx+lTZs21VIHTHkvXrxYzj33XB3Y1Ibyrkg9ZD5YJ5jHa665ptbVifLyyHYhKytL1xJMnjxZB9OmHMvz48n2llR6culWcd64op0kZ/z48ZKGqW82GrxOmDBBevToIekZ6eKDf9YcGQIkDsSU0j520uygefShIZtHFmr1+WI6qQJRXOSSXNaG0TvTrOlGRzF06FCVrBxrUslOi1JKHn05adIkrRM1vQ7UxrI3X4bBlsRg0KBBin3btm2rjVSyvDdu3KhSr19++UWTZdJk0lgbr8wD2zMvb5caWG1oD/4JZ0MeKVQhUd6HBavx8fEeQ5j/Kf9lvbeksixUrF2FEODUN0doPaFD+dBDD8mXX34pF198sfTGQh3a8701R44AG13tnH2wXRP0Ejkdy5X11lQPApyuM3rB7AyPhWG8pjNmejiosKb6EOB35wuSZ8qgqmM25U1dZJZ3eDj2ybWmxiPAtpnqPqbN9gTCfKSgW1J5pMhZfzrqpD7l4MGDpX379jJx4kS57rrrVAcpJSXFTn1XQh0xjRNHxNRLYufGn7GvhChsEA4EDL7s3Il5TTCmrJkerpg1xMPY14Q0elIazPdFvE0dqE6sTVwsa6aFxqTJk3D2hLywfvB7zM/Pd5cVy8+Umyfk8XDzYEnl4SJm3bsRMA0dpZKpqSna4fEaExNjR2xulCrnhg2V+TFE0/FUTug2lNIIOLEu/e5YPjvTZetA1ZWEwflYYmzSYHJ5LNNi0mCvByJgysiWzX5cLKncj8UR3ZFYmVGJuR5RQLXUkyGW5nhGXvmBGfu6hAnzan6mOA0O5tleLQIWAYuARcAi4KkIWFJ5hCVryBJF32b7nLpIIApxRjbzb/Ye45XPtK9rOpUGC+pDGWNHsAYJe7UIWAQsAhYBT0dgf+/n6TmtxPyRPBqdK560smnTpgOkc5UYVY0PijolVFDetnWr7k/JK1cvUteSGNUlQyyo2M89JaljQ2MGH5Zc1qWaYPNqEbAIWATqJgKWVB5BuZvp3ejoaN0+YOnSpXV2UQqJFKWT3PaGe5CtXrNG0rCtAheV1FUiRULZsWNHd82qqzi4AbA3FgGLgEXAIlAnELCk8iiKOTg4WPeyO4ogar1Xs/qNpz98+OGHMmTIEGnSpImumqxrksqyCrMqMXBKQXnPsqApHWd1kNrSaTFY0J7x82fuzTvn1emf+TDPdEO/Jk//FIaJx7gzz7xacyACBiNeTd0xLoj3P2FHfzR0Z/zTnwnXhFXW1bjh1dz/U3wMx7g93PjKSoOn2RlseCU+zjLkM/E15cO885mG7mnKKkdjTzcmfGc5GTteTRy8N8aZBmd8Jgy6dabJxHc45WviM+l3Pps4Tbh8Z+I2aTTPTrfmnb0ePgKWVB4+ZmV+jEcQjPXiwQiYxotZdN5XVpadDafpQKh2YOLj1TSWJn7jRx2V+mPclrJ2h1Hans+mES4drgmLV+PG+C8vLcYd37OTKW2ccTjvnf6MH2e8Trfmnu/NvdNPaTvzzlOvBjteTd1x5tXgYa7mXVn4OcusrPel7fhMw6u5N8+8mjiNP3PlOxpnfHyme+PGGR7f1RVj8s2rszzLeiZeBjO+N8+lcTXY0Q1/NHRrrsaOV2ec6qDkj3Fv/Jh3Jkzne/POpIPv6M64MfGZZ7o3drw3/nhPw22ZTLqcfvjOGS6fzXtj7wyX762pGAKWVFYMpwNcla585vkAR3XkgXk/1K+OwFBuNolNVTROJkyGz4aUJznwZCNuwst9Q2nYoDoN3VEtwTS8pvGkG/OOi4yMxIH+zTPt2DgzPmPonz+GyXemATf2PF1p0aJFuhk+VSSMMe9Lp4X2NDzmMzk5WfVTqZtLnd3u3btrGunGxGPSxzTx3uSLW1zxuFCjgmDSbdLujJ/xORdW8bmuGOJBLDIyM2T+vPmKA7GiGkuzZs2kYcOGbkyJicHe1AnasV7wecOGDXxUfywLljfVQEy9MH7MAIhlxfD27NmjOuksX2OYLlNWtDNh8N7Uw63Q3c7OzpZWrVpp2TN8px+6rWvGlCcx5ZnrrVu31lN5+J0tWLBAT2TicZPmuzNlR3/m++HJMNx0vWnTpm53xDE7J1vWrF6j+xGz7EyZ8MpypPrT/PnzdXN+PvPHb5dpiIuLO6AemXJhOnn86IABAzQuY8+yXLJkidYhnmRk6pFJL6/GGDs+M06Gx3Bp37JlS2nQoIHWC9NGmTpi0shn86OdaVN4T3terTk8BCypPDy81LWzojnvjyCoWu+F+T/Ur9Zn8CgzUFX1gw0eG0428CRhZ511lgQGBUrK3hRtyHleMY/1K22c5M75juGZd+woaAxJ47Oxc/ox98afcX/PPfcIO4Pzzz9f3nnnHb2vV6+ece6+Gn/Ggg0643nxxReFZ+impOzFiSIR0qVLFzHH1dGticdcibG55/t5c+fK5VdcIYsWL5KY6BhalWmc8ZsOhNe6Ylh/iPeG9evlCuDFc9pJ1KgrzhOyeJBBaUOciZGpD+b6wAMPaH0cPXq0loUhlvRvyoZujfu8vDzdJYL19L777hOeb8/yMHXaGa9JJ+2Mf9aRFStW6LnyJnynn7p4T+JEDH/44Qc9MvDSSy+Vzz//XKZNmyann366DBw4UA+oMPXeYOn8fu644w4lYh9//LG7PSCWS5cslQsuuEBmzZoljRo1UnhNXeDD66+/rmXBcjUDDLY/tGfbVJYhgX3//fflxBNPPCAuuv3555+V3PJQDe4mQsP0OuuesePVtB1XX3211gvWYQ5qWbf+/e9/HxQ+B7uPPPKIYkX/xjjzVFVtt4nLU6+WVHpqydp81QkE2PDdeOONUr9+fW3w161bJxdddJHwSonDf/7zH21w70RncRzOY7/33nv16Le///5bHn30UT1LulnzZnLxRRfLDTfcICQHJHQkcZ06dZKHH35YnnzySW2g2WnxLORvv/1W0tPThQ14t27d1A87k3bt2snJJ5+sHRk7FDbslBTwaElKUd9++22VPr788suybds2dUd/u3fvBpF8QVq0aKlSCerm8qxrSlW+wtGfUQjn7rvvBslMkVNOOUWY9o04G5lS2aefflrTxo6D0torr7xSEhISdKBTVFgk//d//6fklmExb+x8mB8SKHa4e/fulfPOO0/OPPNMfVeXCIrJa5s2bYUd/IMPPqhlS2nPq6++Kvfff79wdwtiTrLITp1SJZLNkSNHytdff61ly/JkPWSZU1rF548++kg+/fRTmTBhgg5yiPkLL7ygUiSWN8MnWSBJIGmk4T3TtHDhQi0j1rebbrpJJe/jxo2T9957T9PwzDPPqLuQkBCVcnIQ8/zzz0szSFdNGBpgHfvDvNMQN5qpU6cqtmPHjtUry4g/Yv/bb78pOXzuuecU05tvvlmxW48BBqW/lF7fdedd+n3ccsstONAiWr8Phv3SSy+pJJFrCp544gn9znkmPb9vDgDZ/nCQMGXKFB0gzpgxQ+Pv06eP1i+SWrohOeW3yjrzySefqBu2CxyIsu1guzFq1CiZPXu2UGefbdwbb7whM2fOFNaB5s2ba9pZT82glfWVg1m6e/bZZ7UOMy7WQ+JBKSjrL0kzBzRsP/r27atpZ7r69+8v119//QF4KZj2T4UROFh5qcJerUOLgEXgWCFgOk9eSQguueQSJWSJiYny119/KSE855xztLFlY07JHaeU2DHHx8crWSBhTEpKktdfe12mogPgMZvsbGjPqWOSg7feeksb5K+++ko6d+4st912m8bHjofkjlJSNuQkG5Rukfhx2okEk9srffHFF/Lnn3+q5ITkhMTk8ssvl8WLF2vYbNA5Nffyy69oh2ckDiTENKHoWNjRMC0kETQkzJS6vPvuu9oxkHikpqbKqaeeqh0SSQs7j7PPPlsJ5/HHHy/Dhg1Tv5ySY6fDHRteeeUVnVonGSGxYYdbl4zJL68keMSM91Q3+P7775UYkiTMmTNHmgEjnkP9KAYirCt33nmnEnGScw4C2OHPhYT4qquuUskUiQRJPOvRBx98II899pjWIxJ5hmmkZYyPP05xcoDBgQHrMk/l6t27t1x77bUaLokAn0NDQ+XNN9/UAQVVHFjHWS85VV8Xy9BZX4kjDdU/SLhYXvx+OUjgNDRJIAeMLAvixnLlYIzkiwSQ3yfLk+5uvOFG/UZI/CihXLlylURERsisP2cJSTzDp1t+a2w3GNdxxx2n5cqy5eCA9YgDC9Yl1oM//vhDy4rqFYyX6WK7wnIkCezZs6e2Ba+99pq2QySBbI9ILM844wzNCyWYHERzsMppdRLkjIx097dLDP6fve8AsKJI3q/dtzmxS85BskhSkaTgIaIoIhgxi3qeenp6hgueHup5hr853anoT8QTMaCYECWImMkIkkQkZ5aFzeHt/uurt7WOy8a34b3ZVw1vZ6anu7r665meb6q6e9DH4HfTTTfJdYRrccmSJfLC++OPPwrRHTp0qFxDIJGwvuL6ATH9859vkRdmyFGS7sTY9itHwEhl5RhZCkMgKBFAp4fOD2/0cAWiM8fxeeedJ1YkjC2CJQLWSjxwQeTwMIC1Eq4xEDGQRDzIJzFZQBw6eMjAgwkdLywTeEDAWgHCAMtERyYYC9ilBjIJkoaAtVphXejcubN0+CeccALh16RpExlXCYIJIoIHGKyMeBjBtQWZIH0oTztxbEEuQXKgN45RJlxpvXr1kjgQSzxYsCYoSPXdd98t8mEhA/GAfFg4QG5BmKAfHjR4eCAOY8AgC8QUWwS13MlBCPxx4q37wAD7IARwiYPUgWTgWkJ7A/MvmRygrWHZhqt1woQJcp1gHB8sSrBmw/qEawcEAmRQ5V7JlmS4WJ0B7YwyUCbaHW0KqyauW1w3IB64tnE8depUvmZvEtm4jkBMTuTrFG0c6qRSMQXuIFxwO8NCjPsZL1wg7iBYGJqCtgVRB6HCSyjaEC97eAFFv4AXPbzE4Z6BNwIvi0WFRdSbyeF9990n+dDW6DvguYB7HeXg2kFb6z7a9dZbb5X7HO0MCybaGLJxjOsIadEv4do4+eST5UUQVm/80P6Ig1ekR88eBFKI8dbQAS+/6opHufhBFvpD6I0+Ai5wYAE56ANwjeE8xvBCPkgl4lA/kOTk5BTKy88TOZBlofoIGKmsPmaWwxAIOALo8NA5oyOF5QDWIhBETNKB6xqEEIPt8eCHWxMPXTwc4FbGQwOkC0QBlk10rnjYgIyik4VcuIvxcIAlEenR4eKhNGPGDOmQYamEFRJWI5A6yIYrGW5x6ATXKKwfqQdShVTgQXcPE1foCFKHhwmIHcqCtRSkEnXSBwMIAuJwHsQEclE+xmAtXLhQHn54qMFCAjc9xkeBWGJJKzwg8NCCyxQkFq5bpAEGsEagznjQIB2sY0pGUHYoBedDE/vAGyQB+842h2sZD2K4KjFeDlZpnMe4xuN5SAWIOY7HjBkj1iFYImEZw4O8I78M4KENKxRk4yGPdlSsgT3aH9ZJXH/TeLgDri0QHlg6kfayyy6T6wBtDMJ67733yfUAsgpX7GlMaEAgQCRwvYRqUEzxogdijhc23GMgZWgLxOH+gIcB9y1e0kA2Tz31VCHrcDtjmArSglwCe5A93DPt2rWT9tuw4Sd5WYN3AIRe73+4mPU+wssH7ldcR2hzXFeQBW8DSKC+9OXm5cp1g/sb9yLaDvriGNcJ8kIO+irpJ/bsFYs4+ihYLnG9YAxwWJiPxqA8EEL0PXhBPuuss4Tsoo+AJRR9FPRAv4ewmV9KcO1CLxBcvDCB9II8A0vFM1SvJ3/r7eGO/p6KMuOCwNuGBUOgLARw4+FmRicANwVciyApGl9WHourGgKK4d69e9jN+6E8XNHhIwBzkD4EPLDxEAfZSk5OFpcTSCFcxLBC4M0ebiJY5EDu8BCB5QcuS1gJQRZAQGGtgBy4HuHSAjlAx408eIDDrY1zIK0gCuiMMRYRRAOd/4knnigPI8gEyYDVEgQBbmg8CDCuCfmhC/QEscQDD/Xs169ficUQ5AAB5YJEIC0eDEgLnVAfuMRxDLnXXHONjMPDAwkECK42POAQj7rhwQPCuYCtq3igwOqB+kImCJLiCEw1YB+kGXqBkEJHTadp6mOr5QJj6A+ioHrqtjb0QN0gD2vMAhOUC2sOrMmwbGGcI4ZN4GUF1wlcnXBFAhtYw4A3cIfLEbrCcoXrAOPWcN1cetmlIhNkBfIgH+2McnFN6zHSgkzCyoyXFLQniCuuP4zbA8HBdYcXBBAeWFLxwoNrCdeb4lVTTIAFZE3hsX4YJ4yyakt2RbppGT/xRyRgRbySrXcaqtLewBM/4DRu3DjBGAQL+OBewPhh1AX3N9oSngdgC1IHYg7SeTLfVyCN8H7AMoj8uBagG9oeZA/3Mvp6YIN7Gu2N+xVtynSMeh3dS/ol7TtQJogpLNjoE3DfnjCAPRmc96STThQLIWQh4JrCNYL+Cv0R+jLch3gBhIseL4Tof5AGbm2Mm8b4asGOCSbuawSQSrx04F5Hf4e+EN4TvCijb0QAVsiPoUGQgbrjPIbfQF5lmGsa9EkYu4qXI7zQarwU0kD/lMcNw7jyFb6eoxNu2rRpA4XFvdXSi7aS5qvzCuJhghsTViMQELhCgm3xc31AAIzKOok6B6waBSi2q1b9wATp90LmQLC07VWUptNjbMuKc57X/dKySh9rOjduq4qBs26oP364pmH1veLKK2QSEywlSnad6et6X8vF2DK8/3/xxReiWyDbqaKyKzrnL1YVtaPzXG2VrXIgGzOT7+MxiL9jMqNt4W89qpJPy4CVHUMA8CKBoDrJQRX/lJWnrLgqiqswWWVyKztfoXA+6cyP4Tsgu7gfQVbxkqrXQX3371ouhn7Aoo52A+nV+Mrq5ebz5XHDCDdXynT33Wx4AAYq6IMWW9zQzm2gdHKWi87I2SE5z7l5H3VCAOb44WHkDGgHdGyl02lnp7hoOuSHCwjBKQvXFvKgDOw7zyEOQctAOsjAMdJBNvZVhiTmP6oz0iMN0qp8pMc+trByqE6aFlucQ9DydB9bp2zVF3EImq90Gj0viULwj2Ku2JZuE21znAemiiug0jZwYgsXI9oN5zToNQCssa9lYot21oCyEVQe9p3l6THO44dzWh5kIy5U21Prru2ouCneipezPZ33F7BFXrQBMES7IK9ijnM4xhbn9R7HeSf2Wn5VriOnTKTHcVkB5aKdkQZkGyQO9VGrN86rTk4ZVa0fylRdVJbiWZY+Flc+AkYqy8cmqM/gBkLADYAxNPpgrm+lvYVMRjwRJWPu4IrCmJgCL7tCwn0PiPrWSctDp6BDN7CPoLhpGrdutR7a8eE60IBziEecs94ah3RIozKwReerx6VlOY+d+0iv5UOmnlN5Wo7znMY5ddF8OOcM+kBAnKbBVuukcSjPua+yy4qHLNVb8yDOWQ8ch2IALvghOLHRfd06zyNO8yAe+9puzvSIdx4jrQZNr8dIq22MuNJ5cazx2C+dX06G8B9goj/FXI+x1ThscYzgjMMx4kvjWjqN8zzSa5thv7TcssooK07z4VzpABc2AsgfXOK6r3rpfa/HOK/yNE63iHfqj7R6DvsW/EfASKX/2AU0p74lYrYrBiFjHIfzjb8+lcPNiPEuGAiO8TcY7+R8W6xPXbQs6IQ3W4wDw+B/TDRoiMRBO03dav31WLeId+5rurLiS6dzHjv3y8rrlFvRvlNOWfvOuNJyyjrnjKvufk3qUVo3Nx4rXrotjYczvrz6OdM4953pnfG6r1tnutLlV3bslOHcLy2zoR9r3XVbFm41jasIQy1Xt6XLcsaXJ6e8NEpYVaY+X5Bez5WXV/OULrOi9OXlKS3Djo9EwEjlkZi4IgY3FVwBGGuFgc0333yzWAgRF4gAEhcTE8065AacUAIbvIVizAeWL8GMPgze1o4oEPhYmYaAIWAIGAL+IVCaAJY+9k+q5aoLBIxU1gWq9SBTTfWYBYcZcpidZ+G3COCrEJjRhw6oIVopf1tbOzIEDAFDwBAwBAKLgJHKwOLvd+lqqQRZwpIpOIa7V8ed+C24AWTUoQEZ6Rky1hRVUmLZAKpnVTAEDAFDwBAwBIISASOVQdkslSullkqkxL7zV3nuhp9C8WgobhK8PGBSFF4ezOpad9cvsNVhEtgPtoAXJgS7BuquZRRbYB3IawBlO6/FhtKX1V3L1b9kvR+1nepfg+Ar0Uhl8LWJaWQIlCCgDzWMlcVQB+fLREki26lVBHRcsm5rVbgfwvQaQNubJ8IPAP3Moi+mfmavcTZcf3a/1xjGOhWg7ePsm/V+rdOCg1i4kcogbpxAqIYbQl3FePvCPm4cvVH0HLb6dobzeGPD1nm+Kvo75Wp51ZVRlXLcmAbY+LAtlCWbtm/bLl+XUZzcUCdMmEI99I0+2HWGrsAX5A1fDvEW+CyDiAsEydRygR8+f7d9+3bRA3riPgnmgLaH/vi5KSi2inlBsXVY26Iu66JlYCUPtDdW1IA+qlNdll0fsnEP4boN1EoltV1HXCPoK/CFLwxD03Zy2zVfm7gYqaxNNF0uS28IVAM3vj5ENR5b3CxK+kB4EBDvTIs4TafnNQ+2GoctjvWcU56mk8Qh+kdxwefV8Nmwiy++WDow4O2GAP3xuUYsMYUlr9zW0eLTo1hcGUGvzfrGHeWivY86qpOMmcan9wKlS3XqjrbHp/9w3eLntrZHXaEzxql36tSRj+rnGtC2xacMseYvPjXYUPpC1A1EGZjql8EEWJf/Qb1AKPFpTKwygvtV29HlVfNLfSOVfsHWcDMpYcEC5nfddReN4W87n8zfZMUbGTo3vVnQ4WLJnr1798o3Wu+8804aP368fBMYaZAWaXQfiCEO8p03HfYhG6T0xRdflM4G36fVuIaLdOU104cJOit89xh4a1zluQOXQtsUZBLf38Y3oLHFIv2lFxwOnJYVl4w6YG1TrHOKoNd9xblq/6yW26VLV/p8weeUdjBNdIF+wRigV1ERrLoRsmYt+gR8vhXr2Lql7YGr9l/JKcnUpHETgVrboi5x1zLwzXV8khMvNogL1vauKhawTMJF/J///Ee+s/3f//5Xrgm1XFZVTrCmQ/u0aNmi5Dv2buin6wpLI5V1hawL5eJGQOcPc/57M9+jxx9/nJYuXSrfvUV10LnhO9TNmjWnli1b0hNPPEHvvfceffnll5JHSSS+A56eni5kE3EH0w7K13X27NkjX0JAOSCjP/30Ew0aNEgIJQgHOhr8QvmGdF42igM6rEaNGsnPed4N+1jSqW3bttShQwc3qHuEjsAe7aBtcUSCOo7QcqEHyI0SnDoutlbEwxrVvn176tixY63IC5SQ+rwGnO3dtGlTwq8hBXhdMITD7ddEeW2i14puy0vXkOONVDbk1q1G3XATIOib40uTX6JzzjmHVq5cKb++ffsSLIggjBhrdt1119E333wjC4t/8MEH9N1339FJJ51E//vf/+jBBx+khIQEWTvzH//4B5122mnUunVr2rx5M11wwQU0atQouvHGGwkyJ02aRB9//DF98skn1KRJEyGZsFLqG3s1qtDgkmqb4EEDcu6WAL3RhrBMYYsXBugPa4WbrFXA2/mQ1/36bAe3XQPQF22NfgTt7ea213bWvgh1q+trQMtw2z2vWJW31eXusMV1of2BPm/Ky+emeLQZftqGbtK9NnU1UlmbaLpYFm4GdTlv3PiTWChfeOEFtkyuohkzZlBWVhbNnTuXNm3aRAsWLJBOAeO74JK98sor6Z///Cdt3LiRnn76abrtttvo7LPPpp49e4o7HFbJ5557jpYsWUKvvPKKxG/bto2Q/6ijjhK3yPTp0+mMM86QG1L1cDGctaI62kSDPtj0OJi36FQRoDPqgC1+eIC4qR5OjJ1t4Yyv631nuW7ATh+o0BW6a/u7ue21jZ1toXG1vXWW4Yb2rmr9UZfyrglnnasqL5jTNbT6VBdr30yL6uay9A0OATwMQOYQXnllSvH2FXmrhBURhBED7uHO1IkjapFAZ6GD8fEmCncn3DZ4kGBgNiyQGCPUuk1r4hFX8lnJ++67TyZxvPTSS/T+++/Tli1baMKECVIurFlKTCTC/hgChoAhYAgYAoZA0CNgpDLom6h+FASJw1hKuKumTp1KN910E3344YdM+GbSmjVryBPhkTGSw4cPlwk5cIP379dPzmHsJUKzZs1kQsYNN9xAQ4YMEfc2XN2YAYyxmtlZ2cS2C1q3bh3BCgrSiYkQKKdz587iIodrBG96of62Vz+tbqUYAoaAIWAIGAK1h4C5v2sPS1dLUiIHq+NHH30kE2owe7d37z60aNEiatmqJZ1/3vky9hGTLjAeEkR08eLFsozC2LFnsXWymczePvHEE4VIglCCOM6bN0+WWzj33HOFbMIt3r17d9qwYYPMMId7PCoqUuQhvRFKV19KprwhYAgYAoZAiCJgpDJEG750tUHk1FoJwoiAY7i4e/XqJcfYHzt2bMk+CGg/tlY6A9IMHTrUGVWSH7NB8UMa5NO8OsMR5UEmtkYsfwOhHRgChoAhYAgYAkGPgJHKoG+i+lFQiZwSSZA7EDtYDjUgDgFjL5X8gSAqAcQWPx2bqemRRtMrcdQ0mhdyNY0zDvEWDAFDwBAwBAwBQyD4ETBSGfxtVC8aKpHDFkQS5A8Ba4r9/PPPMmEHRBDrJQ4YMKDEmoj0+IE4IihpVHKqcnFOSaPKxjlNr/vO9MhjwRAwBAwBQ8AQMATcgYCRSne0U71riQkzmLiDr9w8+ugj1LVrN5nEg8/WzZw5s0QfJYFOiyZOarwmBCEdPXo0PfXUU7KkkMbrFuSydB49Z1tDwBAwBAwBQ8AQCH4EjFQGfxsFREO1JmJJoDZt2sonw7BcED61dfPNN8un13r37k1/+9vfZLFzfAnn+++/l4XN//jHPxI+24gZ35g5fiWvY4kF0+fMmUN33303/fWvf5X1KjFBB5/wu+WWW0oIpRHLgDS3FWoIGAKGgCFgCNQYAVtSqMYQNkwBSu7i4uIIC5XjazkDBw6kKVOmyPHzzz9P7777rhDJl19+WZYIwpdzsPD5tDemyZd1sJQQZnn/+c9/pm7dulHjxo3p9NNPJ6R/44036NRTT5VPNWbn8FJDxa7whomm1coQMAQMAUPAEGj4CJilsuG3cY1qiHUrsYYkrJCwVGJMJQjiHXfcIV/XwZqU8+fPl2WFdu/eLZZKrEcZHx8vn3KMiYmht956i93nXQkEFcRz2LBhYsV8++23ZTZ4QX5BjXS0zIaAIWAIGAKGgCEQeASMVAa+DYJSA3V/w4W9du1asTbm5OTIAuf3338/HTp0iFavXk2zZs2SsZb49je+nIOxk1gqCK7tffv2ybhMbEFIkR/f+m7fvr3UGWMsb7/9dnrggQeErGqZQQmIKWUIGAKGgCFgCBgCFSJgpLJCeEL3pE68GTNmjMzsxphIzPAGaYT1EZ9ZxMxwfLbxxhtvFMsjvu0NS2SfPn0kDq5vyIFVs02bNvTYY4/JYun45jfc6Fj8XK2YIJS6BFHoom41NwQMAUPAEDAE3IuAkUr3tl2daq6kEuMe8XMGEEBMvkFQ6+Ktt94qx/rn3nvv1V3697//LfuXX3454Yfw5JNPylb/6BhOPbatIWAI1A4Ceo/iHsOLoR7XjvTfSlH56D/qspzflmpHhoAhECwIGKkMlpYIMj3wQMBDCJZJ/JwBn2+EOxtpsI8tjjVERETIMbaQgXNYngjLFCEt4p0ycazByKUiYVtDoHYQ0HsK915dewP0ZRSaY6UIC4aAIRBaCPz6NA+telttK0FAH0R4SDgfFJoNJBEBDyqkLU0McV5lgHgiIE7T6znEY1/jcWzBEDAEag8B3Fv4gVCuW7eOVq1aVXLP1V4pPkkoBwH9wcaNG6VcHMOCWVY/gnMWDAFDoOEgYKSy4bRlQGqi5FC3qkTp49Lxpc+XPtb0tjUEDIGaI4D7Cx6DK664QogelvdyegtqXsJvJYBcdunShU488UQ5YYTyt/jYkSHQUBEwUunSlnW++WNf3dR17d5yA1zAAg8xbNVy4ga9TUdDoC4QUCtlbl6uiJ88eTL17du3LooqV6b1S+VCYycMgQaFgJFKlzans5NOSEgQEmXWAF9jKg5Y4ghuODxUjVwG7kLXFx6MqbVQPQRwn8PKiOvXX2u+5g8PCxcXOJYJgzy8jDr7keppVnlq1VnL91f/ykuyFIaAIRAsCBipDJaWqKYeaqnEg3revHnUqlUrys7ODti4JTwwsOB5ZmZmwAmcYoMv+mBBdo/H92BGvIX6RQDXRVJSkr301BD2mhIyzV+fL1daZg2rbtkNAUPARQgYqXRRYzlVVQvDpZdeSs8995ys9xgo0gRdsrKyaNmyZXTsscdSbGxswIklHmgg3FgTs23bdjWy9Dhxt/3KEVArGCzG+CLTxx9/LFY2LH6vVuTKpYR2CtzLycnJdMYZZ1BiYmKtXb+4L0r/aoK0klTI1P3S8jRet6XP23HDRwBtr7+GX9vQrqGRSpe2vz6csdg4foEO+/fvJyyUPn36dGratGmg1TmifHRoSsSPOGkRtYoACIZiPXHiRHr11Vdp5syZ9lCpIsq4VrFSAr5SBcv/VVddJS9IuuJCFcXUSzK0NQJ0RtBjObA/hkAxAnheab9g10jDviyMVLq0fdGJ4+YMlHVSYdNJMRkZGTIxBludWarEV9MGYqtkElgpZoHQI5TKBNba9ueccw7hZ6H6CFx88cWUmpoqGZW0VV9K3eZQvZQowDKt+3Vbskl3EwLwGuFLbBjPq2sa49mFa8WuFze1ZOW6GqmsHKOgThHoGxIWKWfHoPsaH2jwVB99+AVan1AoX7EG9oF+6XEb3sAOL2qYYIaHr1p8gWUwBugL3Xbu3Clfy4JlFS8Ueg0Eo86mU/0jgOsB6xXv2LGDxo4dKwoEyzOi/tFo2CUaqXRp++pDRreBqgbKr+gXKL1KlxtonErr05CPgbWSCsO9+i2t91P1c9Z/DhBguOXXrl0rxPL5558XIqxks/41shKDFQFcE7hWjul9jKhopDJYW6pmehmprBl+ltsQMATKQEDJpG7LSGJR5SCgD1s3YAddQRbC+UWiefPmNGzYsHJqZdGGwG8RwPVtLx+/xaQhHBmpbAitaHUwBAwBQyBACCj5xbg5jJmD+xvDHkA4LRgCpRHQlyYQSgsNDwEjlQ2vTa1GhoAhYAjUOwIglxgLCtKgxKHelbACXYOAvoy4RmFTtEoI2KtklWCyRIaAIWAIGAKGgCFgCBgCFSFgpLIidOycIWAIGAKGgCFgCBgChkCVEDD3d5VgqptEOkjZzWNLoHtFv7pBzqQaAg0TAdxLOh6xrPvKn1pDDkJhUWGZ96o/MjWP6lpYRj+gady4VdcssNN9N9bDdDYE6hsBI5X1jbijPGdn5dx3JAn6XV3kWsdQ6Vbjg74CpqAhEEQIoB9w/vR+wlhFf/sIzRfh8clQmbVxj6pekIVyVKaWGUTQVksVJZNur0e1Km2JDYFaQMBIZS2A6K8IZ8eF7yIXeAv8FRWwfIXeQll7DIseY806bPEdcMwEDffY6IqANYwV7EoEigp9lsro6Gi5n/CFGvzku+kRHr/qBJkge3qP4v7Mzs72La5ew3sU9z8WtYZM3P+HDx+W+x5lhoUH54LtlYEYGRFJwB9B++jK8th5Q8AQ8CFgpDKAV4J2WFu2bKH58+dTdIyvIwugStUuGg8PPFT27NlD6enpNHfuXGrRooUsLeLWh0q1QbAMhkAtIYD7Cf1CUlIS7dq1i9asWSP31MGDB/1+SYNMWBRBJA8dOkQLFy6kffv2CRGs6YsfSGVCMq67ZwAAQABJREFUQgItXbqU0g6l0QcffOBqUgms4NIfM2YMpaSkGKmspevaxIQOAkYqA9jWeHgg7N+/nxITE2n48OEl30V1i9sF1gm81YMYv/TSSzRo0CDq0KGDWFfUFRZAiK1oQ8BVCKBPwD2VnJws91Pnzp1lQfG0tDQhhv5UBjLh8oY18ZlnnqFjjz2WBg8eTBkZGSXuan/kIg88Eo0aNZJ+67PPPqOTTz5Z9AQxc0sfhnoAI9UXL8awuIJUahzSWDAEDIHKETBSWTlGdZZCOyx0+LGxsdI5w9WF4BYrHywVMTExYq0AiYTVAg8ZuOtqagWpM+BNsCEQpAiopQwvmbAu4oUN+yBpnhq4vyEL9yd+cXFxco+i36npPeot8IpVFTIhGxZWlAVi7JY+DJcCcFd90Z9p3xykl4mpZQgELQJGKoOkadAJ6w8qhRW6YzwSHnaqt1pZnMdBAq+pYQi4AgG5hwq9YjnDPu4vbGsy3hr5EXBfikzewsKoxzUBBnppHwDZkImAOLf0YdAXuqu+0N2CIWAI+IeAkUr/cKv1XDojU9+QdVvrBdWyQOhZ0a+WizNxhkCDRyA8LPyIe0rj/K08rHAl9ykslPzTY39lIp/q5ZSncrF1U1B9desm3U1XQyBYELDpucHSEqaHIWAIGAKGgCFgCBgCLkbASKWLG89UNwQMAUPAEDAEDAFDIFgQMFIZLC1hehgChoAhYAgYAoaAIeBiBIxUurjxTHVDwBAwBAwBQ8AQMASCBQEjlcHSEqaHIWAIGAKGgCFgCBgCLkbASKWLG89UNwQMAUPAEDAEDAFDIFgQMFIZLC1hehgChoAhYAgYAoaAIeBiBIxUurjxTHVDwBAwBAwBQ8AQMASCBQEjlcHSEqaHIWAIGAKGgCFgCBgCLkbASKWLG89UNwQMAUPAEDAEDAFDIFgQMFIZLC1hehgChoAhYAgYAoaAIeBiBIxUurjxTHVDwBAwBAwBQ8AQMASCBQEjlcHSEqaHIWAIGAKGgCFgCBgCLkbASKWLG89UNwQMAUPAEDAEDAFDIFgQMFIZLC1hehgChoAhYAgYAoaAIeBiBIxUurjxTHVDwBAwBAwBQ8AQMASCBQEjlcHSEqaHIWAIGAKGgCFgCBgCLkbASKWLG89UNwQMAUPAEDAEDAFDIFgQMFIZLC1hehgChoAhYAgYAoaAIeBiBIxUurjxTHVDwBAwBAwBQ8AQMASCBYGIYFHE9HA/AkVFRVT65/5aWQ0MgaohgGsfISwsTH44xr4FQ8AQMARCBQEjlaHS0nVYT32YhoeHk8fjKfmFe8wQXoewm+ggQyA8LFxIZH5+vrxcGaEMsgYydQwBQ6DOETBSWecQN+wC1BpTWFhIeXl5lJmZKb+cnBwCybRgCIQCAiCQ2dnZhPugcePGUmW9N0Kh/lZHQ8AQMASAgJFKuw5qhAAepgXeAkpOTqaoqCi6+uqrKSYmRh6uNRJsmQ0BFyEAC31qaqpYKKdPn069evWirKwssdq7qBqmqiFgCBgCNULASGWN4LPMsEZ6C7xinZk2bRpt27bNHqR2WYQUAnB346Vq8uTJtGnTJuratSvBUm/u75C6DKyyhoAhwAgYqbTLoEYIqIsPD9Z27dpR586dayTPMhsCbkMA1z6s8/Pnz6f09HRKTEykA6kHKMJj3avb2tL0NQQMgZohYL1ezfCz3IyAEsvc3FzCz4IhEEoIgFRi6Aesk9jH/YBJO3pfhBIWVldDwBAIbQSMVIZ2+9e49k4Xn03MqTGcJsCFCGCVA1z7+OF+0HtCty6skqlsCBgChoBfCNj0XL9gs0yGgCFgCBgChoAhYAgYAk4EjFQ60bB9Q8AQMAQMAUPAEDAEDAG/EDBS6RdslskQMAQMAUPAEDAEDAFDwImAkUonGrZvCBgChoAhYAgYAoaAIeAXAkYq/YLNMhkChoAhYAgYAoaAIWAIOBEwUulEw/YNAUPAEDAEDAFDwBAwBPxCwEilX7BZJkPAEDAEDAFDwBAwBAwBJwJGKp1o2L4hYAgYAoaAIWAIGAKGgF8IGKn0CzbLZAgYAoaAIWAIGAKGgCHgRMBIpRMN2zcEDAFDwBAwBAwBQ8AQ8AsBI5V+wWaZDAFDwBAwBAwBQ8AQMAScCBipdKJh+4aAIWAIGAKGgCFgCBgCfiFgpNIv2CyTIWAIGAKGgCFgCBgChoATASOVTjRs3xAwBAwBQ8AQMAQMAUPALwSMVPoFm2UyBAwBQ8AQMAQMAUPAEHAiYKTSiYbtGwKGgCFgCBgChoAhYAj4hYCRSr9gs0yGgCEQ6ggUFRUJBEWFRYR956+wqNB3rjg+UFiVqWNhIRXyD0F1rq5+znzYhzyNw1ZlV1eupTcEDAF3I2Ck0t3tZ9obAoZAgBAICwsTIhUW7tuqGkqq9BjpqhI0Hwip1+sV2SBr2HeS1KrIKivNr/J9pE/TVFU/TY9t6Ty/yvaRVWda2zcEDIHQQcBIZei0tdXUEDAEahEBJVKwVIaHh1NkZCR5PB7ffkSkj3AWE8+qFKskNcITIXIgKyYmxiczLLxEXlVkaZoSmRERFBsbK2QQMqEr9Nfzmr6qW80Lsou6Qya28XHxFO7xT9eqlm3pDAFDIHgRMFIZvG1jmhkChkCQIwAiVVBQQBMnTqTXXnuNvv/+ezrzzDPpoYceEqKlbuGqVANpIyIjaP/+/TR37lzat28frVu3jr766ivKy8vziwDCyhkfH08zZsygc889l7Zu3Uq333473X///UIyq6Nf6Togb1xsHP3jH/+gu+++m37++Wc666yz6JNZn0iZKNuCIWAIhBYCEaFVXautIWAIGAK1h0Befh41adKENm/eTGvXrhXBW7ZsoVNOOYWio6MpMyuTYHmsSoD1L5ItnIcOHaLzzjtPtgsXLqTFixfTF198IZZFtRBWRZ6mAfFNSUmh+fPnS9SePXtoxIgRQnozMjLEaqlpq7P1FnqFmObk5IiOyAvZIJkWDAFDIDQRMEtlaLa71doQMARqCYEIdi1fdtllIg3u5O7du9PVV19N6enp5An3HDH+sLxiQf6ysrKob9++1Lt375JkI0eOpEaNGlF+fn6VZWlm6JOZmUlDhgyhHj16SDRkjR8/XqyfcLEjjT8hnF3ysKBedNFFoh9kDBw4kAYNGiRloj4WDAFDILQQqNordGhhYrVlBNQigq0F9yGgY+X8JQzuq3HtaKzXO3CrqmsY1r5hw06i5s2b0969e2nChAmUmJgobmxPhEfupapoJxN0CnwuY7jQ4faOiooSlzKsgdANOlUnQGZubi41bdqUTjjhBHGnd+zYUYhveka6T5SfXmrIhoyjjz6aunXrJtZKWGihM6yt2AJHkEsnrtXR39IaAoaAuxAwUumu9qoXbfEAUFKCfXko1EvJVkhNEIC9SR/eNZETynmVhANHTD7Br7Lg9RZSly5daeiJJ4qb+tbbbpN7phmTzOraAAtxvzERu/iSS+lfPO6xZ8+eNHz4cFEhmnWprjxk9DIR9TCxu+jiS2jq1Kk0duzZQnrzWe8InlTjj0zIxetmIcvwsIzzzr+AfvhhFV111dUldUc9QIZBahVX5LNgCBgCDRcBI5UNt239rpkSSpBJWBvy8vihIP98DxK/BVvGOkFASQGvlCjtVcizkf1xldaJci4TCjKJH6779evX0/Kli6mIxw7yIjr8K9tqjwkpSUmJFEFMLju1p89mfSiWOriHq83YuAi0Y1xcLKU0SqSEuGh6e/r/WB670pm8+RNQH8z2Pph2kOJieMxm6j6a/vqr7KLOEgLoj0zNg5nvcTyrPHXvTmrTqjkt/HwOfbmgeKklrn+f/seJ210nGhm5VORsawg0TATCuMMpu6csri9mIsJ1YqH2EYArC8Rt+fLltGPHDsLYKbzVIwSy88UlgR8erH//+9/pu+++p8ioSHa9VXip1D5AJrFaCKDNInmM3GOPPyZj8rKzs2U5mmoJCfHEwBD3ZUJCAo0bN46+XbmRGrdoRwU8IYdvygrRwfhEWATz8vKrTyadklmHcB6LWZCTTmGeSAqPiGGaWT23t1Mc9lEvjO/MSd9PUfHJrJ8HsaWT+X0cTvyPRXq9rCm7xSMjo+jgvh3Ut0tr+uSTWYRrEX1aIPu1iioHfFS32bNny7jQ9u3bC24aX1F+O2cIhBoC5XFDs1SG2pVQhfrKA4gfkJg08NmceRTT9VRq2rkv5edmccfrn7WkCsVaEj8RQHuBIERGxdE3bz5AK5cvoQEDBsjMY6Y5fkoNzWxKLkAsc3Kyqd8Z19Nxp11OWempQvQqQsXXDrXzQoj7LDcrnQllBLcrk0pp44pKr/wcyFHGwb0Um9hY5LLQyjNVIQW4NkTpS3IhW3bjuIwfPn+Lsla+Lou3o2zFtgoiLYkhYAi4FAEjlS5tuLpUWx8AeFLAYtO+7zA6qs8wystmywlbYiwEFwI+wsGkMjqe1i18TaxliBP3a3CpGvTa4NoHOcIWXgQsGZTHFsP83MxKSWWtVo4Nk7KIOLvW87Iy+KAWpLPMmPgk8ubnkrcgpxYEHikCAwVAKvPY3V7A5aC/0P4EWwuGgCHQsBEwUtmw27dGtcNDAIP8c/mhlp2Zxg+3TPaa2YOhRqDWQWaMa0PAItwFvOyMhZohcCT5gSmu+Fcz0VXPjeJ0uAnIWG0YFVlMoS5IjvrUVRDZxfKLraFHYlpXhZtcQ8AQCCQCRioDiX4Ql60PATzPYG3AGC9YbsxSGXyNhokdFOYbh/dru9UhaQg+COpMI+ApP/6+N77xbaFyBGRSXzFuDF7lGSyFIWAINBgEasOp0mDAsIoYAoaAIWAIGAKGgCFgCPiHgJFK/3CzXIaAIWAIGAKGgCFgCBgCDgSMVDrAsF1DwBAwBAwBQ8AQMAQMAf8QMFLpH26WyxAwBAwBQ8AQMAQMAUPAgYCRSgcYtmsIGAKGgCFgCBgChoAh4B8CRir9w81yGQKGgCFgCBgChoAhYAg4EDBS6QDDdg0BQ8AQMAQMAUPAEDAE/EPASKV/uFkuQ8AQMAQMAUPAEDAEDAEHArb4uQMM260cAXzlA4tAl3zto1QWPadbPa3H2CJofo0vL53G1+W2sjqhbNVT9Vd9Ksur+VQGtmXl0XSl5Ws5tjUEDAFDwBAwBIIdASOVwd5CQaxfEfHHhJ0Bh/yJtjBPsQGcP9FWxF964a8oO1MduV/VdEfmrPWYMuvE6oeRR8pSQlhWwcirdZV9+ZpIxV8UceYpS6bFGQKGgCFgCBgCbkHASKVbWipI9FSLWrjHQ5ExScVagTjhU4HhVJCXTV7+ERPJiJg4ioiMprzsdPnmsNMKp/sgaZGx8RTuiZB0FZG2uoJA64RtFNcpjOuBukhgwlvozaf8bHz33Bfn1FHzhkdEUGR0LNc/hy2RhVynZPLm51JBbrZYOZ26ax5PZCRFRMdzmkxOm39EOmcef/eLWH98ZhBbBN3HNtRDWdiEOiZWf0PAEDAEaoKAkcqaoBeCeYu8hRTOZCgzdTetnj+VLXMgLIWglJSQ3JI69B9JjVp0ZGJVQD8v+ph2rP2K+o2+jhKbtqECJlk+46Z8rZrCmbhB1o+fT6PDezZzuj9QZFwCFRYUMEeFRP4x0VPrn5KxokIvn+N4/hZ5iUWQLaQgc2Eejme5IH6ljyETuqpMlYdmxD4I4crZL1Fu1iEmkgWSPyo2kdodcxK16j6Q8nOyfKSMK1FU4NMNltmIqBg6uHMDrfvybTrq+NMprlFzWjFrErU9Zhgfj6Z8Jo1ab+iNEBETS3t+Wkrrv55BPYddQM07H+tLh5Os+686CgpE3mLd+TTqB4KLOpYXcKaQ6+oJ81Ah4wIChW+3WygbAWCEoGQbeCkRLzuHxRoChoAhYAiURsBIZWlE7LhCBPCg9UREUWbablr2yf8dkXbFpy/RyRMfpi4Dz6S03Zto14Yl1Ot3TKpAhMI9FJOYLFsQuPzMdJG14ZsZtGPDcuo14lKKik+UB3t0QrJYL2H5hJWQ2ZEQwjC2kMYkpAg3gwU0IiqWrXw5TJy8FB2fJMQVx0hXcpzHZJb1hkVU0hfkUV5WupAykMlCEGUmX978PFr+6SuUk5HGxLCx6JGZdoDr+RKN/P0j1GXQWMkXw7oBA1gic7LSmBhHUNqunznvFIpNakqd+o+inesXUVKzDlyHSC6nQKy6UTHxomduepoQw8xDe2n3T0uoQ79TOJ2HQNiBjycimuvB+GRlcF4moaw7rL6RnB/7eTkZ5M1FHX+1nJY0BLNJIUOcDvXyhnkpLi6OoqOjKT2dLcYg3g7LZUk+F+/UhPwhL8h2SkqK4Hb48GHKZ6uxkkzAUhP5LobVVDcEDAFDoNoIGKmsNmShnUEJCYgPLIXtegyg3139qBC7Dd++T4vef5a+nnYPtep6PHU6dhQltzxKLHeeiEjKTttLG7//kMlSOiU2b09tug+GaUiIHmTx45s8kTFMIg/Qhm/eY3J3kJq07c5WwhPESuiJjGJSl0GbFn8iLum2vU6kfZtXcRldmGgm05YV8ymlVWdKbtWFcjPTaOvKz6lRy058vpMQNRC4/VvXUELjVmx9HCYNWciET+rEVr8wJpYgX+GeJjTujtcooUlb2vbjQpr93J9o1dwp1G3wOCYgHtq05BPKPLiH5Xaklqybz3IYIXhgP6lZezrurJuoSfuebP3MoqjYRrR30wrat2U1xcQ1YgvmSRQZHk/NOhxDx439EzVp14O8BflivUQdDu/bSimtu1DrHoPYNZ4j8ft++UEIaDjj2KbnEEpp01VIJ/DzVaSY/PChWiaTkpKkPitXrqT/+7//o/Hjx9OgQYMoIyODPExiSwe10pWO9+e4NmRBRriOzy1HCbF287VTFvGTdi0mjWXpA5xiYmJo9erV9MILL9Cpp55Kw4YNo6ZNm0ppIJuQW1bectSxaEPAEDAEQhoBI5Uh3fz+VV4fsnAvg+gltzqKx0Nm0OAL76Rd67+jbeuWsJVyI/2y7DNa/OHzdOF9H1L6/u304RNXgTeym7wJ7d+xibocfyqN/tNksCC2yLEstv5lHNhBs5++lnb/8iPFxDeinMxD1OeUi2nY5fdTVto++uSpa2jXplUUl5RCCY1epr3bfqKB4//EJHE4ffLsjdT/tCvpd9c8RnuZhM165o/Ud9TlNIJJ78Ipf6eln7xMsYkplJ1+kDr3H0Ejr3ua3cxwI7Olki2h8EyrhQqEMond+K2YFMK6CXKXffgAzfnvTbTlx2/EopjDFseuA06j0//0otRL8di/bQ199uJt1G/UFXTKtU/Ql6/dzTi8wHKYMLOVsVmbznTmba/SLia5cyf/RaygvUZ0p48fu5w2LpnDOiazjmnUb+SldPLVj9CK2ZPpm7cfocTkpoLzgqn30Kg/PE7dhowXy6kQcubkQqKYHCclJYr1beHChUImP/30Uzp48CCNHTtWSFQkDzkoi1TiaiiLnDmvEpz3er0i3xnv3AeG+Ol14jynJA1bTVNWmcibnZ1NmZk8llWJs1MQ72uanBy22paRRsuCnNzc3CN0LuBhFgkJ8bRkyVJ69tln5detWzcaNWoUjRkzhstnQl8OYS2lih0aAoaAIWAIMAJGKu0y8AsBJQIgUnBlwxXt4Uk5jdt0p23rl1IWEzC4uxHwwE9lktmm67E0+KK7qFnH3vT6bUNp49J5TBT3UjiTSQTk//ath4RQjv7jM9SJxyfOfeFP9MO8adRt6Lm0Z+MyIZSDz7uVjh3zR1r46j+EVHrYxSykgsuRcZYYN4nAx3A571z3rRDK/qdPpOFXPMDjHZ+nBa/dS+2+fod6nzpR3N2SnvPBOpWdcZgWTr2TJ97E0W4uE2MiOx03itZ+MV0I5fBL/0nHnHolffPGfbR89hTq9NU7FJ/cwicCrLk4YOIOLKmL3n+OOh4zhE6/5WW2ps6jBVPuEottQuPWkjI6NoHWLpgmhPJ3V95PfU67ij5/+Q5aMfd/1HP4BB6b+pGQx+E3v0hNO/ai7958SPAWJgsDLwJXGW0Sya742bM/pSee+S999+23vnP8NyoqiiZNmkTPPPMMgUw5SZiSL8SDgDnPqQBnmrJInF4PyAv3saThoQVHBIZH0+Tl5R1xWiOQRn8aV9YW5BjpnOU70yE+gidRFQ9ldZ6SfVg6oSss1NB7w4YN8nvttdcoMTGBju4dLS8dR2S0CEPAEDAEDIEjEDBSeQQkFlEVBMqgC0IKc9liyU94imTrHk91EFEYe9h9yLlUwOe+ffNBtkbupIN7d1BsQiNOymyIlx1CyOfxk3BRN27Zgdr3GyEWwh5DzqMN38+mHWu+Fism3MtHDThDzh0z4jJa9fl0kSGkgsvF1jeRhwXyfnh4BG1btVAI5tYfFtC0vwxnC1m+lLdz3ffUZ9RVWrxwNDZdyrjMLT9+LfExPE6z78hLmMTeQB89ejlbTxNlbCXc4D2HTaAVn04Vi2PXgWeJTFQZJAcBVtxdPLYSjKbb0PMoml3fHfqMoMsf+5qieELS6vmvSbownvm+HeVx3Vazm/3Hea/6JjXx2a2rvhAd03b/TO8+eBElN2tNXU44k47ioQXeglzWmctyNAaQhNu7X99+dPjQIVqzZo2UAQLXuXNn+ZVltQNuIJ7x8fGCITJpPUQA/0EauIsxRlPw1hOOraZxynGcFpmwUEJGRXKQB2QQVtXyykIa6AwiXV4oZMstCGNExJHu/oICr9R3yZIldM4554iINm3a0Lhx4+j666+nW27+E+WAZPOLhgVDwBAwBAyByhEovzeuPK+lCFEE5CEvxAmWQX7wszUQSwId4PGKu9Z/L27exjwWEiQOjCeSJ5l8yZa/VZ+/RceOvoqOG3MjffX6JNq7dZ2c97Ein2XKN24yncKYa0JuAU+qYVYhJBWkDCQ0Y/8Oatd7OO3fttbXAqyLzGyWrYdiGzUTfUQuEzW4nSGjY99TeJZ1P1nmB9bHxKZthcjKJCDMpOa07NzlyTYpdM7f32QXu29sXTS7zBFQRy8TkSJ2/2JWOMgyiDPifQTMV4dipXjDesFKxmkw8SYqJoHd2vtp/Zfv8HjLo8Xdr2k9xcSoB1tk43jMJ2bA52Uf5vGWPWUM6Mhrn+KhAGn0y9LZtOTjybTn5xU09q9vsLY8Ux6h2P0Na+OgQQNpwiVX0L59+2jFihX0/vvv0xdffEHXXnstDR061Jc+wH9xDVVEFqEezoOAVhQqk4N2gQykK02SC3iGf0J8Am3ZsoWOOeYYOv/88+nyyy+njh07/qbI0vl+c9IODIEAIaDXNLYWghcB9B/aVsGrZe1pZqSy9rAMCUl6c2CCC8jSvi0/0oePXCJEa/fPKymLxysed8bVMllGltIB7eJOb/+WNULuug05RyalHNy9hfP7TGxF/HCHrIjIWJ7ccxp9P/MZWvz+49Sx/6m07IOnxVKEMZMgZEs+flFcwz999764tQE6LJOxSU3AQoTIrv7sFbb2wQrIFDE3izry2MMvpz9MqdvXUfeTzqUtPIFn1ZwpPE7z3zy2MNI3kzqSb3z+B1Lm5VnTcJtH8ZhOrDOZk57qm9V93Om0ZfU39N1bD/KM9kto0czHpcyjjjuNhwCw1ZDzK4HBPmatY0IQ3OgrP3mBklt0EFK4/LPXaPgld/t05lyYrd7p+DOEdKft3SrLMq2a+6rU5ay/TaPPX7ydJ+9soTNvnUKNz7qRflryGZPhLIbPYaJk7qVtk5mZJa5cWPpGjBghE1D2798vdcPYSiw1VF6AO7i+QjCQtUNsze3atSt9/vnnMkEnIzNDyHhiYiK3ICD+1bVeX7hYOYZAZQjovY4t+hy9l3BsIfAIONsDBg/tRzQ+8BrWnQZGKusO2wYpWW8OLJWT1Li5EJkdPDEH/DCJLWz9Trta3LV5vNYjlv5JTGnKy/VEUL8z/sDWyXtpxr8nUOPmbalxq468LNFemcUdk9iUGjVpwcQsW9zMGam7aCWPJ1w2+1WOb06nXPUAJbfuTI0KO9Go656gDTwWMn3vFuo9ciJ9Nf1BIX4pbbrR0UPH0ZqvZ/IEnet5Is4plNKirRAvzMIeMfFftOjdx2naP85gC2Ek9RwyjtocPUhmlYuFki2VqFsCWzlljUomXoVsJeUuW2aOYwmiHiedT4f3bqbVC9+mtd9+RPGNkmnIebdRB7aAYk3OeJ6AJAu5s/z4Rk3IwxbSpOYdaQTrv/jdx+i9hy5jl3gk9R4xgfqO/r1YLOOSGsuYvc7HjaYBZ91Aq+a/TqsXvMmu8kSZ6NMIM8nPvom+ZuzevJdnn/MM9SaM3eDz/+a7vmToAINfbKlEJDqxCC4H5BFL5GALFzB+eABh7UoLPgTwEIYbHuFA6gHGl7FjMi4PAl+Skgd28aFtDIGAI6D9MBQpb9JdwJU0BUoQ0JeAkogGvBPGla3w1QYWDl1iowHjEJCq4QGPh9fy5ctpx44dNHLkSJmlCmXQaQQq4JKAXnk8Y3bU6DOo9e9upk69h8pyPqwYczC4FL2yNBAm42AsIKx8UTzhBG7h3MzDkgYTeGDpi4pNErKVeXAXW+8yxD0Nl3T24VSK5nGVXrbygcjBPQx3MSbspLOLG+7l2MTGYjFEub8s/ZR+4JnQPYZfSP3PvIG+f+thWjjtfhp5zSNsObyYFy1Pk6V+MN4xgV3b2Yf2sWuaZzqzPJC9HC4vJyNVxmP6XN9ZsjakMGIY6JhYYnY2QiTrooujO7cRbHXEwu/5OZlM/JIoLqU545DJePjc1ZExvM4ml5/HrmqsLYmll1B2bsYhru9+0QULwaNusG7CxQ18QDYj+es6mQd3yyQcuPrjUlrIeZRZkJNNGak72RxZSPEprVhmAsfxYuy6CDqTS+T/8LEradJNF9PEa/4gJCmSCS6C3ub6MArk9SUKBcEfYKJ4QB3dRzyI5plnnkH57U7jWfgTePIWr0fK7WqhcgTQN8TyEl+rF75HeWtn0KezZ5NOygrW606vBdRuNuuLpbfat29fYv2vvNb1mwL64od++rnnnqN58+YJuUSchcAjgOscq2QMHjyYbr/99pLrKFivf38QK48bmqXSHzRDOI8SLDxgY+BydgS4obHMjszAZoIWwbOfMS4S8SBAWBg8PqUlWwDz+SYDOWouZNLDBAmkEekK+UYsLMiUc1g3Ep9IhJXQExXNs8aPEdf53Ml/pSXvPUlpB3ZT90FjqPOA0TzeMBV8ixKbtRONsD4kFlBHOVhUHLPTMbYzml3aRUVekYkyUR8JrC+bqSQPjqGLfo7RuYWcWLYuxsGiyUQyN4sJNJsJQYbjkrk+POYSM3xANvFw1bI9PKFEvjTEZcti7lw2llCKZ+KIPJhFn8sEEzoDJ5/sQ0JkCrJ95BFLNyF4edKNEkrWVOLK+uN0ZTs7M+d+WflCJU5x0G2o1Nvq6X4ElATDMDF58mQhL3369Clz6Sz319ZdNUDbYAIhVpJ4ZcordOONN8oER20zd9Wm+toaqaw+ZiGdw0mwiop4FjVmHyPADcv7OlNWyCeTuSL+ootvhjK+XMNfKuFlW0DmELxFmISDsYw+IubLD3LJ5zBBB0P/OC2sjZi4AtI2/h/v8DI/S9lqt0sWVm/KyxMVetlNzQQO5ADjEyWwXPncI0SAOBaGFxNWHr8JqySnVYKM9LqPr99o0DjnFnKcuoFQ6nmtD3ie7uMc8oBcFhRklyqbv3gDEiq4qY6/YgTZCGqNhLXSF8G6q4XSF2N/DQFDIIQQQF+HH0glxv9iEl7//v1DCIHgr+rGjT/R4sWLyVv8bAp+jWtHQyOVtYNjyEgRksS19W2ZCPF/X3DuF8eIFdAZz/u/8SCWOseHCCWyS9Kym5IJlhBSPo8vzcDFDJc5LJI+UsYETPKrEBFV8kf1LlFYk4mOvmS/pinJVqyL6qRbzlyimzMvxxfLlZ0jytCIsvMcWe/SepQIlxOqb0XfAP9Vgu0ZAoZAQ0JALV/YHjhwQNytWGvVxlgGtpV1WNv+/QdkciQ8RmijUAlGKkOlpV1cT1gumTkKwQOBgvu4iC2jYWzhK8vi6OKqmuqGgCFgCFQJAVgqlaxgcpmSSd1WSYglqnUElFSiTdBGCM62qvUCg0ygkcogaxBT50gE1CKHM2rN+63NTuOPzGsxhoAhYAgYAoaAIVA/CPgGbdVPWVaKIWAIGAKGgCFgCBgChkADRcBIZQNtWKuWIWAIGAKGgCFgCBgC9YmAkcr6RNvKMgQMAUPAEDAEDAFDoIEiYKSygTasVcsQMAQMAUPAEDAEDIH6RMBIZX2ibWUZAoaAIWAIGAKGgCHQQBEwUtlAG9aqZQgYAoaAIWAIGAKGQH0iYEsK1SfaLiwLa7ZiLTT94fvYFoILAd9adY42Ci71TBtDwBAwBAyBEEHASGWINHR1q6mL6obzF2fCw/nb1sU/fB7QQnAhoKRS2oi/3oCg7Rdcmpo2hoAhYAgYAg0ZASOVDbl1/awbCAkICrb5efn8KcQ83uZSfn4uhRUYqfQT1jrLpqSSwiO4jfLkc23yXWD+FJGn9Pck60wLE2wIGAKGgCEQ6ggYqQz1K6CM+gshKSykqOhoatI4hZa/9zCtn5MoZKWM5BYVJAig3XJTd1HLNm2lrfDNWQuGgCFgCBgChkB9IWCksr6QdlE5+p1SfLv0pZcm0+ZNG9lyWfrDiC6qUIioWugtpMSkRtS959GUmZkp1uYQqbpV0xAwBAwBQyAIEDBSGQSNEGwqwJ0KYpmfn08tW7akDh06BpuKpk9ZCDDv9xYUUE5ONg9d4O+hcxtaMAQMAUPAEDAE6gsBI5X1hbTLynESy9xcHktpBMU1LYi2wk/b0DWKm6KGgCEQFAj4xmn7XkwLeSgUjjHO3t9+RfsilauVVHkoA/IRsK/HGod4pEVQGZoXcbqvaRBXVihLj6rmLUuexR2JgJHKIzEJ+RjnjYl9j8cT8pi4EQBnO7pRf9PZEDAEAoOAs+9wEjto4zxXVe2ceZTYaRy2eMZoPPb1mQNyifP46XnNh7I1zl89tG5OmVWVZenKRsBG8peNi8UaAoaAIWAIGAIhiQDIGn4ImzdvpoULF1IerwLi9Xrlh6FR+CENiB/2cQ5bHCPg2LmPY6QHkQOJwzkc79mzh958803Jg7iPP/6Ynn76afr6669L0jplIY0eO2VpvFM3yFc9sa/5UD7yqk44h5+FmiNgpLLmGJoEQ8AQMAQMAUOgwSCgZAwVeuaZZ2j48OGUmpoqFkRYESMjI+Wn5AzHGg+yhvw4xj4C9vV42LBhNGfOnJJzDz74IL388stUwOPBR44cSePGjaPHHnuMTjzxRLrmmmuE+Gl+yIJMlYXzd911V0kc4p26QT8cY4uf5nv33XfplFNOkWPEQ19sLdQcAXN/1xxDk2AIGAKGgF8IFPEXqsJ4ZQVsNegxthYMgUAgoCQMZUfz0nJRUVFCut5++21KSEigBQsWUOPGjenWW2+lVatW0Q8//CArTqxfv56uuuoq6tevn1gfW7VqRSCRn3zyiRC3/fv305dffilE9ZhjjiGcnzVrFq8y8hI98MAD9Pnnn4ts5PnPf/5DN954I5155pnUqVMnWr16NV166aX0448/0rJly3gCaQf66KOPKCkpic4++2zauXOnWFMXLVpUotuhQ4cIBPKiiy6Sevzvf/8T3V555RWaP3++lHv11VdL3YxY1s6VZpbK2sHRpBgChoAhUC0ElFAe8enTMohmtQSXk1iJaxEvil9YwK7IYiKr23KyWXSIIwCyBdcyrHw33XQT/f73v6etW7fS3/72N3rxxReFBE6cOJG++OILIZcnn3wybdu2je6++24hj8gPa+S9995L6enpYjlMS0sjTACFxRKyTzrpJJo2bRr97ne/E6soIP/jH/9IrVu3Fnf4lClT6I477hBiCvf4DTfcQLt37yYsewcL54EDB0SfK6+8Uiyq//73v+n666+njRs3yhaEE2VDd7jy4fYGWd6xY0eIt27tV99IZe1jahINAUPAEKgUAbVIwkYZzg9HHGOL4xLCWbyP49I/FFCVOE2j5XkioigmMZk87BbEOY3Hfl0GkAsEbMvar8uy3Sq7NE7O4/quE0glfhMmTKA33niDunXrJlZKkDNYLd966y0hmNDxnXfeoRYtWlBMTIyQxsTERIqPjxeiGBcXR1dccQV17NhRxk6edtppUhWM2YQsBOwjwHWdlZVFyAMLKQgo9hF/wQUX0FFHHUX9+/en008/nZdSyyGQSrjSQSrff/992rt3r1gyYXkFAYXFdcCAAVIH6DNp0iSzUgrStffHSGXtYWmSDAFDwBCoEgJK9Ir4IRkZG0/fvfUQzbjvbFr87uMUGZfAZM9nSZR0xBMfQMR4qz8tRI9LtkoSi4lbSTznhXUSpPXgjp/oh7lT6ODOjeQBieVF8+sqOEkQHuwgBQXeghJSWVflNiS5wBDYYQurHDBEwLH+6rK+KFvHRmILUofJLyBpIIGw+uGnAelxDGKIfRDRw4cPyxZxyBsbFyvJV65cKS5tpAPZ++abb2j79u0id968ebRlyxZxf4MwQiZkweKI9MAB8cAAQa4txgcB5xUvpAGBRLnAr4C3sJQijYXaR8DGVNY+pibREDAEDIFKEQDh87DlJH3fNlr/7QeUdTiVcjIOUe9TrxJLorcgjx/mHoqKaeR7APJnNwu9+bKfn53FZNBLUbEJTBSjYLKU8vKy08X6GMXEFAH5EfCAzcvKoOj4ZNqzaSUtmPJPGnHVA9Sm11A6tHsTP6x9FiJJXAt/lOzgwe1lgoyHOSyicbFxFBsbK4QDFigNSgz0uL63KF9JBsiJ/pzx9a2TszzoAUKn5A4ESYMQqGKiqXE13aI8/BBAykAGC/kaw5e6srOzxVKIfbUiYuwiLJgYM4kAKyIIIsYzQr+lS5fQ4MFDZB9E9OGHHqZ5c+eJe3vw4MFCGB966CFOt5T69OlDXbp0oeXLl4tbHOMhDx48SL/88gudf/75tGLFCkkP/Zo2bSru8enTp1Pz5s0JYz4RMJv8jDPOoCFDhsi1B31SUlKkXfMYuyZNmojL/LrrrqP//ve/ohfk6TUgQuyPXwgYqfQLNstkCBgChoD/CIBgFRYUUWR0HG1eNkcIZesu/WjnxhW0ZdXn1Ovki8nLD3LYJxfPfJK2rpxPTTscQymtOlPqzvU04Ow/U3zjlrRlxXxaPf81yklPpY59R1Kf068S8vb9Ww9TZEwCW0Hj6OfveTJD8w503Ng/0f4tq2jtwulsoYyktQumUURkNHUZNJYK8rKJ7VGS1/9a/ZoTD2d9QINIJsSz9ZUf2pt5eRoQDYQ///nPYj3CvqbFfiCCk1CA9ID4KoELhD5llfn4448T3MiYHd2sWbOyktRaHNoDlkgEELLOnTtLGz766KPUu3dviccYyV69eskkHEyWGTFihIypBDls3769uLafffZZIX7nnHOOEDq4rUH8sFwQyOmll1wi1wVIPFzZixYvopdfepnWrl0rE34wVhMBk2lAbDEGEjO+Yc2Ejs899xxh8g3wAMHFmMw2bdrQbbfdJj9YVT/88EP5jRo1iqBH165dZfIQ8mJcJwJk4RqwUHMEjFTWHEOTYAgYAoZAlRHQsYsglt6CfLZSvkexCck08NzbaOYjV9BP386kniddQLA2fj3tXlr+6avUttuxlLbrZ/ph3utSzoBxt9Evy+bSx89cR20696XEJm3omxmPUXrqdhp25YO0cdFHdHDvdmrZ6WgmjjG05qv3KPvwPup3xvVUkJstn/PEtiAfD9XadwPiAS0/JguYEYzJEZhgAUsUJk0MGjSIRo8eLZYvPNDxC2Rwkkq4XGHVgovUGR8I/VA+AvCZOnUqwV38r3/9iwYOHEjjzxlPgwYO8unIVszaDM42QVvhh4CZ3RowLhIB7Yrxjtdee62eEp3atm1LIJjOgPpgKR/8NCAOZBPEsknjJvSXv/xFT8kW50HyMdO8dOjEs8IxIQgBOsPC+c9//rMkGfLCYolf6YDJPhqQLtDXoOri9q2RSre3oOlvCBgCrkNAx1Lu++UH2r3pR+o+6AzqMfxCavvhM7RzwzJKY5d0QnJL+vHLd6l5+x40/u732LoYRe9MOpN2bVolNHAZp41ha+TxZ99MCY1b0eEDO2jV529Sn1HXsJs7ScZqjrntNbZotqLX7ziJdmxcSeOPHUUZqbtozou3U78zb2CSeY2QVU9E7bq/mVUwmY2kHfv20R/+8AdZRkYbCQQCrkxMqtCxeIF+oDtJBcb/wcIFiyXigyEAn127dgn5wsxq/DAZBtbBg2kHZaxhbeqp9Ua5IHtoJ1gusY84WHHhgscYx5tvvlnGRcJNjoBzaGMdV4l8avVFesRDDuJUluKvZWld1FqK8xhCofJ1i3jIgyxYJEFudWgA8kK+szzNhy3kIZ/qoTrgnAX/ETBS6T92ltMQMAQMgWojIK5vLy8Oza7njd9/wPmLaN/mVTT97yMpfe82sV7+suRT6jl8Ao+DTGcrZCsK90SKVTGZ3d/bmXTm5WZRVtpemXSwYMqdPL4yn93d8dS8XVexSBby5JuYmDgmotGUm32Ix2Xy2MswTs/WyXwed4mQl3WYcnkMJ0+lkGNYUKFbbYQwHv+JCREtWrakt3i82+IlS2jmzJni9ly3bp3MHMZsYYzLw4Mfv0AGJ6HA+oXHHXccwdKmJCpQukEvBBAfWNswmxnu55NPPlnc0nA/jx3LwxccYyxrQ1dneyjxglyQQgToBeKIkJycLD85KP4D3JAWFkYEJ76Ih8yyAspVIln6vJJExDtxUVmwWuo5yEEa/LQ8Z52QTvWXTPyn9HmNt231EDBSWT28LLUhYAgYAjVCALOtPZERlMMTczavmEdR8Y3Y0tiacpnkJTVvTxkc//Pij3l85NWUmNKc9m35ka2JG4VY7lj7rYyDxFhI5PMymRz/97cptlFj2rb6K0rdvp7HXXblp66XCSK+bMIWoTDfwz+MJ+3ghwDSFxETSxHR8VTE5dUmoYT8ojCfOxHkIoWXm4Gre8yYMXQg9YBM0IA1EMvQYCweQqAf6E7SA5KESR+YBBJMAesuwvUNQgkrqgYhvuWQNE1T21snaQOpw4LmeGnA/oUXXkjHH388rxH5E69duZAunHChTNCCZRDEUMkeZMCKqHFqcVRdIQt1cwYlkFJnzg+rpFq+MVv8Eh6j6cQGeTWPs42dMm2/dhEwUlm7eJo0Q8AQMAQqRACzaGNikmjNgjcodfdW6jF4LJ15+1Se+Z3Ks7kTxcW9be0i2r1hMQ06/68096U76PW/j6JYdml7C9kFyMQQE236spt7zuTbac7zN1JK667i+m7X43jqc9pVlJN5iDLTD4keIJB5ORmUnY4xgl52iycK2Vw041G2WmbwbPOJvM3ktLU4UafIZykCcQCZSM/wzUrHAx8zeEEKdGkYKIkHfiCDk3BAX5ntzDo64wOpH8rWSSvYh35qNRSCV4p8IU1dBuCCNoQOzz//vCww3vPonpSbk0uYzANXNNzhmFQDUglihx/yKcmDfrqPOui+U2+tozMOMjQe604igFBiTCe+voMF0y0EDgEjlYHD3ko2BAyBEEQAJK+Q12os5Ek63QedSb1HXkbZh/ZQHhM8rE/Z97SrKa5RU8o6tI9adx9AIybeL27qNkcPoR/nvUarF75D+TlZ1GPY+YxeEa378i12n/9AfU65mE4Yz5MZ+KHb+fjR7BLNEQsgZHbisZQtjuIymFx27DuCBoy5jvZv+5Ef5MWPgLK9kf63DnuzQRQQ8DfCwxaqcB8RwQQYBBADEASEsgiFnKinP9CjRN9iggOdnPH1pMpvilF8oBsseQjQC9Y9bDUOVun6DNAL5WOpH8y0Pvfcc2WMJ3QAscMM/7POOkus0U89+RR9++238l3vW265RT6x+MQTT8iSPkcffTTdc+89NOezObRhwwZZkggTuzAp54QTTqCHH35YZrwv4M9Cwu2PSThwqeOTjhr3yCOPUHxCvIynxFhYfBISn2EE8T7vvPPEeqntqG1cn1iFWllGKkOtxa2+hoAhEFAEwj083jAvi3qdcin1Hf17Htt4iMdR5lFEVAx5mQi2Z9LX+YSzxH394f+7hLat/Y6GTriTDu/dQuu++5DadO1PcewWx3jI7iedL2MvC9mCiYk8GCdZyORj2JUPcB3DKDfzIJPXAho84R9MAjw83vIAeaJjaMhFvhmzKDc/h8c18rhK5rp1E5Rc8hYPdbUyoTB7yFcMuRMfJ26ay3le4+pjq6QSZBFL+WDJH1guQXIxGxwBY2bxAoFJWSB7WEIKwyCeeuqpEismyCiWK8I426efflpmcuPTivicIj7heN9998lalVgYHTPJ8U1wrCCApYruvPNOiYNlWWeToyyMPUX+Hj16yLe9QW4xzEKJZX3gE8plGKkM5da3uhsChkC9I+Abv8guaZ4wA2IIshfGRFPjC3J5sWmeoBPB5G/whXdS+NsP0/IPn5XxkEf1PZlOOPcvQsZAKPIyD8NrTWHsbs5jt7pv3GQYWz59i1DrcQ6TSQT5DCSP6cw+jPM+koeyYfHk7JzfZ11EWguGQHkIqOsbFlMEjG2E5RK/ZcuWyTqS+HISzmM9yNTUVHrvvffEEgmXONzjH330kXzpRr+206lTJyGRWM4JLnS4z2NjY4RonnrqqbIeJZZUmjFjhiz5BIsmxr5+9913YsUE6cai5hheMXv2bJktj33MCEcIFAGXwkPoj5HKEGpsq6ohYAgEHgElbiCTGB+poSSeSV5YGC9nw27rpGbt6fSbJ/OkHiaFbEqMSUwRayYWRgcZBAUEGcVOWBisjTyWkY9BHp1Bj33EFbl+LRfpjFA60bL9yhDQoQtYvxITrkAC8Q1vLCaOxdmxXiRc3SByWOR8//59PKEmgvDlHVgRsUj5XXfdJZN7YEEESQUBBTnFigCQj7xefgHKyMiQeBxjDCUm5mAR+Ouu+wMde+yxJd8Xh85IC2voX//6VyGhN954o6TRr/aUZe2trK52vnoI1JXDo3paWGpDwBAwBAwBQcBH/EASecxcQQ7PCj/EVkueqR3FywPBVV5MKJFOSSLIpJJS3ZYFp57T9M7jstJbnCFQFgIgeCCCcCtPnjyZVq9eTR06dBBXNsYywjoJVzj2kRYvULm5+OxoODVKbkRbt26VzyNiTCZIJdLCja3L/OAY8c41J3EeZd5zzz3yxZ1Jk+6RMZYgoSCZuk7mgw8+KNZNLLIPnbA0lLm+y2rFuon77ets3ZRhUg0BQ8AQMASqiACIHsgigkzAgCWHH7JyjBnaHt95JYRywv4YAvWIAIgirH4gefj0ISbVfPDBB0Iax48fTy1atKBGjRrJpBmMp+zQsYO4vDEmcu6cuWJF7N69u7iqdekmuKoRsCzQUP5mNz71OGvWLFkzFOXhe94dO3YU4vrZZ5/JOSysDwspFoaHex0TfzDm8tVXXxWrKcZpQhfoCUJroe4RMFJZ9xhbCYaAIWAIVAsBJ2F07quQsuL0nG0NgbpGAJY/BBA1WBVhDXR+9hAkDkv76PI+sEDqpxJBMkt/ihGyMLEGoROPrcQP4fTTT5ct/uhkHMju37+//BAPXVq1aiU/7MNqCbe3BsRBT2xBTi3ULQJGKusWX1dKx82HgBsQN7Aeu7IyIag0OlC0nXWiIdj4VmVDoB4Q0P4FfQz6GzwnQC4RYMFUEod47CPoPvIgrcYr0UO8Wj+dcpEOaZAHW/y0PJzDD+md8uEqR3DqIhH2p84RMFJZ5xC7rwDnTR4TE0PR/LPgDgTQsWbyYHV0stqO7tDctDQEDAE3IeDsX7CvJFHrgDiQOg26X1ZaTYOtU47mQbxzvywZzvM6NhP5EJDeQv0gYKSyfnB2VSkgJPhhpt3atWvpp/Vr+FNvPsuXqyoSYsrik3yJ/Lm+E3hGZiR/ccWIZYhdAFZdQ8AQMAQCjICRygA3QLAWjzc7uBCuu/4G2rz7MMUzWfEWuxSCVedQ1wuTOg5s30BTXvoPjR9/Lh1MOyjkMtRxsfobAoaAIWAI1A8CRirrB2dXlQILF1wJubz4bF5+AQ2ccDcd1XcYL7SczjNPf3VnuKpSDVhZWCixeHVkTALNfPhiOshrwjldSA246lY1Q8AQMAQMgSBCwEhlEDVGsKgCK6W6TsNleZMCXnA5lz/3lsejrW1ZhmBppxI9+CWAP6kibYSRQ3ghQPuF19l390pKth1DwBAwBAwBQ6AEAWMIJVDYjhMBHdgMvoIfQvHGd2B/gwYBtIu2DcgkgrafHNgfQ8AQMAQMAUOgHhAwS2U9gOzmIjBpDgSl5MeWSwtBhgC83452CjLtTB1DwBAwBAyBEEHALJUh0tBWTUPAEDAEDAFDwBAwBOoSASOVdYmuyTYEDAFDwBAwBAwBQyBEEDBSGSINbdU0BAwBQ8AQMAQMAUOgLhEwUlmX6JpsQ8AQMAQMAUPAEDAEQgQBI5Uh0tBWTUPAEDAEDAFDwBAwBOoSASOVdYmuyTYEDAFDwBAwBAwBQyBEELAlhUKkoa2ahoAhYAgYAg0PAaxNW1RYKB888Hq9tkZtgJtY20DaRRd5DrBO9Vm8kcr6RNvKMgQMAUPAEDAEagEB/dABPskaERkpZDIqKqoWJJuImiCgn8iNiIgo+VyutlVN5Lolr5FKt7SU6WkIGAKGgCFgCDACICkgL4VsoczNzaX9+/dTWloa5eXlkSfC40qMigqLvwYmnwYuojCXfmjDW+ClSCb5aJOcnBwqLCoUwo+2CoUvnRmpdOXt5x6lnR1FYaGXvx1e/IUej284bxHfcEVedCDFx3zjEe+Gh/s6RuRH54ItXDxhHnzdR9P64ipKj3MoU7fyZSAuu8jrcxehXJVf1U6sRKcydPdHXl22Jh4+qLN2aNjXuLos1w2yFQds8VMLgxt0Nx1DGwG9p3HNtm/fnu6++25KSkqigoIC1wKjJBkVcO67sUKwUqanp1O7du0oNia2pP91Y12qq7ORyuoiZumrhYASNRCxqNhEIYsFebnkLcjh1+0w8kTGUERcNOXnZTHR81J0fDLfgF4qyM2ScpTwefjNLyIqlgryOS/nx8ciQS6jE5OEbOZnZ3BPxISzmICG800dGR3HiZg0CgkFAfVyufmUn5tJkTHxLC+G8rIPUyG/WaqeVamcluHh/KJ7Tibn5/Ji4ig/J4O8+fnVkleVMqubxvkt8AJvga9jYxKMt2g8kCz4Xm5AJmHZCedrBBYfWBU04JwFQyAYEdB7GNupU6fSli1bglHNKuuEcYggYq+++iplZ2fTddddR/n5bHX1RLi2v0L/0bZtW66DJ6Re5I1UVvmyt4T+IAAyyXcURUTH0tz/3kSH922jgefeTq17DhbCt37h27Tmi2l07JgbqEXn4+iDhy+hpObt6eSJD0pxhfzmHR3fiH767gP64bOXqduJ51KfkVcyGUyn7MMH6IP/dxElpLSiEdc+VpyeXQ9x8bR99Ze0+L0nhKB683KEWDZq0ZF6n3oldeg7gr5/5xHa8O1MGvH7x6hph15MBtOZWEQyzy12wTDhDVNrarGVVK2d6Cxik1Jo1byptP7Lt+mkS++Vei2e+SQNOu8O6njsKMrNSKNwz6/yoFwYC1BCCqurynNaNyWdP24fFqckCNtC7qTzmdzCehETE0Nbt24VfJKTk0kHkktEqT8qo1S0HOIBVtH5svJUFOckcBWlq+wcCGF5AWWUdx7nPGwRTzuYJhaejh07ihhYGJwWn9qsc3l6WrwhUB0EcE3q/RgXF0c9e/asTvagTbtixQo6dOgQPfnkk0GrY3UVc7aVvgxUV4ab0hupdFNruVBXeSCjA2Q3zd5fVlHq7i307VsP0ti/TafYxKZ0eP9W2nV4hv4AACmrSURBVLlxJfVI2ycEcOfGFZSbmVZSU+QHOctI3SXpWnU7Xo65R2WrW67ENWq6F2YnIa+SnokCCCfkxiQkU0rztmw9zKOflnxG29cvpvMnvUcJjVtRXKNmbKXyWUA9IIAgGWw5xdabn0MFedliTQW5jGY52onnHD4oOqTv8emembaHy0mh2EZNmTzH87kItqA2FssorKGwkML6mp+dKbJhRY2KSRadoS+spUgDjPwOxVkhD3ri7bhp06a0du1amjJlCr311ls0efJkGjVqlIzzcbp6tV6aryIdkAa/hhR++eUXGj9+PPXv35/GjRtHw4cPp45MMCO5nfKL8WxI9bW6uB8B5z2Lex4/twa85KK/2rdvHy1atEj6J9yTHTp0kBdgnHNr0P5S+2W31qM6ehuprA5alrbaCCgBwU0F9zXC7l/W0IqPX6DhV/8/tgaye4PJFIiW3IBwI8NtXRx8nSeTPSZ/vnTRvg5UHvaw/IX70kun+uvbuycySs51G3gmnXr9s2y5y6dv3vw3ff/uU/TL0s+ofZ+TKY9d7HGNmtPWlfNp/9Y1YrFc/9UMJnzx1P2k8/j4GHbJF7C7PJt+mP0y7dm0XNL0HDaBEjytWWefTqwQJTZrR50HnEGN2Mq695eVtO2HhdS6xwm0cdHHlJt1mI46bjSXOUx0hxVz2UfP0/4tq9g6eyz1GnEZYxPtc5sXE7bquOMFKrZUCn5sD4WV7dvvvqNnn3mG5syZI5010mzatIlWrlxJmZmZ0okXQ1yyQb6srKwySaN2irB+wj2l7aqZ9aGGeKSBHCdxdaZDGkwowK+sAFnICxkY6F66LM2DeOgCt3VZaVRnpNGynOkwzhQD6nft2iXuQ7gQZ86cSa1bt6Z+/frR5s1bqW2HKCb8v7rEtWzbGgKBRkCvZWx1P9A6+VO+ek7QV6WmpoqITz75hK6//nrZd3v9UAk3t480QjX+GKmsBliW1H8EcFN52fLXqEkLseotY5J2zCmX8UMdlrxfH9qw2MFSWFaQdHqO5YE0IE7S45gn/CDoDSznCguEUHoL8qiQx2MiRPLYzg1fz6DFH71ALTv3o1+WfUYr5/6Pkho3p/iUFrR36wa2as6isbe/RsktjqJPnrqa9mxeQ6269KWlH09mEvo5nX//pz5LI4hJTAJt/eFzWjD1Hhp943Niefz67UcouWkriopLpH3bNtL6bz+kc+96W+R9/MREOrR/FzVr142+eecx2rH2axp9y/+J3kKoit3uomw1/oAkYUmRme+/T3+/axIdOHBAcgMPjFd69NFHKTa2/EHjSIcfdCgvaJryziMeaSoLSAPiWFFZ0dHRhF95aVBfuP6caUqXjbyoM3DBvvM8joELSGdsbAxveZwvh927dwsxD5d24GusssrYeUPAEPALAb23cV++9tprJTJef/11uuGGG8p8MS1JZDtBiYCRyqBslgaoFMgK/4Mre9CFd9L7j1xJX0+7l1p0OU4qi85FOxjeZbLoe5RrXNmIFD/ui/P6xiv6UmLSD8Km5XNp2h3DmOhl0MF924U4dup3Cv0w5xWxZIaxqxyWSVg8+42+loZcPIl++PQlmvX09bT+q3eoSftetGPDchp+2T+pz6irackHT9G3bz9OG/hcNJNTBJBauM0hw8MkJZItstjvdNxpdNpNL9AXr/yNvp3xBKXt3kQ7133PBHUtjfz9/6OeJ11A30y/n5bOeomtp59StyHnyFhM1L3alkp2f6NjhpXw7LHn0WNPPEMzZrxDs2bNIoxTgtXvrrvuopEjR8qsxLJcSiBYGH9ZXlDSChJXXkB7gcBBTnltpxbC8mTUd/yyZcvouONmUYsWLejss8+miRMn0qBBg2j06NMpMzfPHmz13SBWXsgggD5Cl985ePAgNW7Mw4Y4Dt6U7du3y0QX9BfOl8GQAcelFTVS6dKGc53a3FFgFnZuXia16TGQ+o68hFbOeY0yDu6WqjitlWXVzXeerVtMStHBYIyiJ8K30C/GMCIOywSVNitFcpoonugTFZdAbY4eREefzBOBWnSQ8ZJappdd3Nhv03MIHdqziVp2OVZmhqft+plVYesdE8TVPCln5ezJ7DaOosQUjAXdzlYuX/m+Ds9nNcXsG3SCkNekXQ9xnccmN5cqFXI5B7atFRyWf/QfWsITiTyR0ZTUpDll8bhM39pHIKmMFf+rVuCqCy5McEHqevToTnfeeSfdcccdtGrVKiGXffr0oTZt2ohlrjzXtJdxLS9gwgsmtxQC53ICdACxVXdzOcmkjrU1Uae8MiqLB3mPYQsl3G/33HMPXXTRRdStWzdxuftc5vmVWlMrK8POGwKGQPkI+PpOovj4ePr0009p0qRJQijhVVEPhKYpX4qdCSYEjFQGU2s0YF1gUwSpjOBB17lZ6TRw/O20bdUXYgXEcjxgg+g8YDkUax8vz4OAsZAgXpgBjjSp29fzEkD5MhZyN0+6QYhNasJ5eFmiAl6GiLmYkDIZqxlBHfqPFGthTsZBnJBZ4wU8RjKc9QBZRNDZwZgM1KH/qbR19zyeBJQnZDQ2sYkQxAHj/kztjhlO6fu30TaeWQ4r5M+LZrEMvYWgu28fdBD7IJEIvkk4/HWFMA9PTkphNQpp8IV/p1bdBtLhvVto+5qvhdBiKSLCOpw887zagasi9RbCzcSPSS0W3wXB7N27N1vijqOMzAyZWVmR7Io6cF6QqaKsvzlXkRwkxHkP46E6/yZzPR5giaVevXrRgAEDhGwDM1iJE+ITmFDy+FR5GfKjPeqxDlaUIeBWBNAPoA+AlyQlhSc7Fg/Pwb68nPO5sl6A3VrfUNBbn4ihUFerY6AQKH4wY33IrKxMnpCSS/HNW9GA8bfSp/+9hUkXj3vkSSIgYdjftWk1Tf3zIJ+2zEZjeCb16D+9SE3bdJYZ3IfvGsVEsinP5F4iaXqceD53PDxDkMlaUbEbGGQUsnLSUymTySJmlIcxieEeTNzdBbk5fB7ki4lSMWf45o1/0T6ePLNl2Vw51/n40WxtPJqWzHqBln7wDM8oT6VNy2bTLp5V3mXQWCaekAG9sf5lXvF+Pu/7ygb5xcxxbJEOOhz9O7bQ8vhNyOs+dCdt+O59St35C3XiZYgkwAjoJ4dRIoctCDPcStiH6zs9I50Jve+zYYEmcr6K+v6qzs64+tpXHGBZPZB6QJYXAmYaDz0CqV994WDlGAKBQkDvNWxBIp0/eBBANjVNoHS0cquHgJHK6uFlqauJADoEfjIL8Wp79FBxO0fw+MPcrDSeLT2a+vNM6YNsfcTalFjWp/OxIzgNf9qKiZgv+BZNB7E87cbnacnMJ5j4raacnRupRYee1GPYBdRl8DixfsLKCRcyyGl8Skvq2HsoNe/UV8RgpjYWWwephLu7Sfue1OGYIRQji62zRZF1bN97OP383Yfi4h16wR3Ugcdewt1+xh+fpcXvP0lLPn6WEpNb0ClXP0SN23anpKbtqSPLiMXyQUxoOx4zVJYpwlhLlI0Z4QXZWZTEW6SL47zNOvahUdc9QStAVD98jpc2akmnXf8kNWp1FOVnZQgZrPZ4ymKknBvlpUIwuW7Ot30jSj6kFAdsI3F9cJDr9f+3dx5QVlXnHt/TqNIUJShRIojY0cQKKmBJlsv+YtdlyVMTMYlGSewxy5qHqEms2F2WGJMYs+y9YIl1mfjE7jNqRAVRYIBpl7d/351vPAwzOjPMvXPOvf89685p++zy2/fu+7/ft/c++cv6LwIiUGACyc8gfRTHvNj3z6LHKXBRlHw3EZCo7CaQSqZtAt4hsAD5pP++wMQbT8thPFtTriGMP/AMuxHrJW7i/CxoouVd01ykc6mPLvNBw9YMOx97eZzM8qVZ/nr1G2jL+rDOo3VG0V0ZclXxaTxL4lI948KuU2+yJYFwd0dna0w0CtxoOWxcsiguGbRPGLv9/jb7vCEex0yi5fC/wnaHnhsWzZ9j61uSZy5asUZsuG0YsdF2li+zubGK1s77OIwZv2dMY984q31JGDJiTFhzk0m2HwsTdt1wgllkF3/5WRixwQQTqLlozaz9YnYYvcWutvxQXe386NYfaPVnDcuK+GQXxGCXJupYKvonAiIgAiIgAj1HQKKy59iXRc5Jq1t9FE4Iu/g71MatIZ54Mg6BcwQEYlsBIdcU1zVsjGsSVtbEiTmhJj6ycXFYGgUhrl7yyYsx7o6W0ThWrqlxQbPYJG0b1RlFZ9zGuCZi44STyv6VYaVV1oiu9bWjBbPBHgNpE4qicLV0owitj49eZJwja0k28jjJKECtPFEk8thILzsu8Nb7efd3o7nHucZ9dYjg5vRsQfTIhDGeBAlKw6B/IiACIiACGSQgUZnBRstSkRFJBERf3mrpjtn8uZD7yiJp8ZrFpd2U+Gdii3UDY3rM8m5ONVoqo5uEc/G1rLBsFqrNWjJ6p2Pwu/LXEHwNce3MjXY4LGwQZ4UzIQgrqpUTN0yzUEUIkj5jJ+3OKGItRGHInwcXlBwn91sfL5Oeu3pi+hYv5qkgAiIgAiIgAlkkIFGZxVbLUJkRZh6S+193zq+1tf2mNPy6bz2Ndo8Ro9HtjPUTF7iL09b3tb6f622d8/uS27bitT7X+jh5v/ZFQAREQAREIAsEJCqz0EoqY7cTQDwSEHP5/WWPJfK6HbkSFAEREAERKHECEpUl3sCqXtsEkqIxuU/s1sdtp6CzIiACIiACIiACSQLLDmhLXtG+CIiACIiACIiACIiACHSQgERlB0EpmgiIgAiIgAiIgAiIQPsEJCrbZ6MrIiACIiACIiACIiACHSQgUdlBUIomAiIgAiIgAiIgAiLQPgGJyvbZ6IoIiIAIiIAIiIAIiEAHCUhUdhCUoomACIiACIiACIiACLRPQEsKtc9GVyKBuB64PZaQRxPyssccikyqCFi7xKcFtbRRqkqX7cI4U9Yy5U/hmwkYK+8vhOybgSmGCJQQAYnKEmrM7qxKXqiwZmN88chCfyWekNOd+SmtFSDAIyjjg4u8jUjJ228FUtWtkYAzZe1SrV/asbeEPby0ub/wp5jyfoSlggiIQGkTkKgs7fbtUu34AqiMz7dm29QQn3eNtTKmJKNDl3AW/Kav2qUiPp88F5riM8r5As/FB55XxT+FjhNwMc62sbExb/2Nt+v93wmGzbxy9B/xvQhL3o++7XhKiikCIpA1AhKVWWuxIpTXBEkuF3r17h0GrNQvPH/7OeF/7xsUcrkoMN30UIRyKIuOEsjLyopQGRZ++n4YOmy4fZlXYmZW6BQBf+/zo2qVVYaGxx+cET568c4oMBswW3YqrbKNHEVkVXVNWDDvs7D5xmNCVVVVqK+vl6WybN8Qqng5EZCoLKfW7mRdq6urw4wZM8Lbb74eqkyf8KX6lV2sk8kpeoEJNEUr5YDBQ8K4cZuF2tpaszYXOMuSTB5BWVdfF6ZNmxZee/WV+DOK97ze+x1v7GZW8UfNmLHrt1jOO36/YoqACGSVgERlVluugOXGWkNoaGgII0eODOuOHVvA3JR0dxFgLBsu28WLF8nV2EWo/t5vamwKw4YNC2uN3COmJEHZRZxhyeLF1o84166mo/tEQASyQUCiMhvtVNRS+rgyvgjq6urCkiVLipq/Mus6AdrMXxrD1nmOyfc+P6p4/yt0nQDvRR+fTSocK4iACJQuAYnK0m3bLtcs2fHzhaCQTQLJdsxmDYpf6iQz9hkPqLDiBJJcVzw1pSACIpBWAlIMaW0ZlUsEREAEREAEREAEMkRAojJDjaWiioAIiIAIiIAIiEBaCUhUprVlVC4REAEREAEREAERyBABicoMNZaKKgIiIAIiIAIiIAJpJSBRmdaWUblEQAREQAREQAREIEMEJCoz1FgqqgiIgAiIgAiIgAiklYBEZVpbRuUSAREQAREQAREQgQwRkKjMUGOpqCIgAiIgAiIgAiKQVgISlWltGZVLBERABERABERABDJEQKIyQ42looqACIiACIiACIhAWglIVKa1ZVQuERABERABERABEcgQAYnKDDWWiioCIiACIiACIiACaSUgUZnWllG5REAEREAEREAERCBDBCQqM9RYKqoIiIAIiIAIlAqBpUuXWlXY5nK5wNb3OSZ4HDvQv9QTqE59CVVAERABERABERCBkiNQUVFhorGqqipUVlaG6upqe7FPQFD6fslVvkQrJEtliTasqiUCIiACIiACaSaAaERYLl6yOLz77rthzpw5Ye7cuba/cOFCuyZLZZpbcPmyyVK5PBOdEQEREAEREAERKDABF5UN9Q1ht912C++9967l+I9//CM8+eSTYeDAgeYWR3gqZIOALJXZaCeVUgREQAREQARKigBisaGhIQwZMiSst956YfHiJfYaNWpUGD58eGhqaiqp+pZDZSQqy6GVVUcREAEREAERSBkBt0BisTzooINaSrf//vu3TNjxOC0XtZNqAnJ/p7p5VDgREAEREAERWJaAjzNEcPms6WVjZOuIOkycODEMGzYsLFmyJHz/+9+3elELnwWerRrlS0v7MNEo2V5ZrEdnyixR2RlaiisCIiACIiACPUzArXeIlazPjmbmNwEX+IQJE8L8+fPD6quvbuf8mh1k9B9t5O2V0Sp0qtgSlZ3CpcgiIAIiIAIi0LMEECouKD/++OPw+qxZPVugFcy9MY6d7N27d1hzzTXNUvnEE0+Eurq6UN0sOFcw+R67fdTo0VYn2opQDuJSorLH3m7ZyNh/ZfmHwj8Yfr4YtfC8vAx8MJP7xSiD8hABERCBtBGgHzz00EPD+++/H1ZeeeXQ2NiYtiJ2uDz06963v/DCCy19fIcTSFFELKxYXGmTRx991NbeTFHxCloUicqC4u1a4kkRxXiS3NL8kwU8tcqKSnN5+AeQbXeHpGijDE25/Cy8pbml9gHxvMm3EPmTbrIMzALkVVGZr2tVZX6x3GQc7lEQAREQgVInQL+H25s+8csvvwxTp04NO+ywgwmZLLuMlzZ/11XE77isBtpkpZVWCs8++2y48MILQ119XaipqSmbpZEkKlP4znXBRqcxaNCg5UrIm3bBggV23uN2p7BLCjXy6tu3b+jTp09LOerr60NtbW1BhS1l8Dr5h5QPpodFixYFyuGDoJPxPY62IiACIlCKBLzfp270iwhJzlXGH93eb2ax3hUV+fGVWSy7l9nbgKcD0S4Ygcrp+0mi0t8JKdryBuTNiHD685//bFsvHgJr3XXXDZMmTYrreS1useZhTfQ3Lp2Kdzqca32etPx862t+TBzyYvHZ119/3cqBi2XVVVcNu+++e9h6663tV7Gnldwm80+WgzjJa56Xl8WveTw/z6++mXEh3Dv+9jf7VU79WXJixIgRJm5hRVyfJejp+P3tHROfawTiJvf92O/1OJwn+PnksV3QPxEQAREoAgHvg+jHvP/PRU9SRUW+jypCEZRFGwRoA74X3LtHFNrKvyvauKWkTklUprQ5+fU5b968cMIJJ9iWYibfmKeccko466yzwueffx569eoV+vXrZ0IU6x1LMhB4E2Nh5DpjbVyEcp60uIdfUyw+yzWC50EnhZj7WxRyP/7xj+3xWRYh/rvooovC2WefHU488UQTlgywJg22lJtHbjU2NLa4Z8iDvEgTocwWIUhcykv5eDEwO2l9bGxqDAMHDAzXXntt+NnPfmbX+vfvb0LyiiuuCH/5y1/CRhttFHicV5++fULfPn1NCFMX8sCKSbrUl/JRN44J5EN5+eDnmnJWPu5zyyxlc2Z2Q/xHOs6ZOvIUCBe0ztTjaisCIiACxSBAv+Yvt5IVI1/l0TYBbwMslOUYyrPWKW9pBAqv6uq8K+Db3/52eOqpp8Jzzz0XbrrpJlt6AVH17rvvhKFDh5oQ4rFW9913nw3YRvjQySDA3nvvvXDPPfeEl19+uUX0ufjjHNewROLiTrqSifPvf//bBCUi9eqrr7ZjROZqq60WTjvtNHuMFqIVCyaBZ7c+8fjjoXZhrYkvd1vXN9RbXAZfI+qqa6pN+JI+Yfbs2XbfZ599ZuVAEBJqqmtMQJ5//vl2/u233zYB+Zvf/CZ88MEH4corr7Q6IX4XzF9gA6JfeuklE6uUi/yZGfnpp5+2iGXy4gWfjz760O6rrKoMlI16sqzFhx9+EB588MHwzjvvmKWWuLCB66uvvmr5LFyw0EQ3ZfUO3QqtfyIgAiIgAiJQpgRkqUxhwyNSPCBaEHjbbLONnfre974XsFJ+8skn8Xyf8PTTT4eDDz7YhBOCjfjHHXdc+PWvf23xXHghrLj373//u7mQDzzwwPDPf/7TRNOiRbXxaQYHh9///vdmLcRCN3jwYHN5z5kzJ/z0pz8NP/rRj8IXX3wR9thjjyi6PgzHHnusXcc9Pn78NmHDDTcy0Uk+a6+9tlkXcZGzNMSRRx4ZBdxHZh1kMDku/VdeecXS2nTTTe0+RCLu7FtuuSVsscUWYWHtQhOVVBoeWDhvu+22sOeee4Ypx04Ju+yyi1lZKeudd94Zjj/++Fi+ebH89XY/4puybbfddva4LwQ5A9pZVBfLKSJ8xx13sjjEQ7QjGBHP5557ruWJNRNOf7jkD8aFWZaIau5nGABxqU9yfKm3m7YiIAIiIAIiUG4EZKlMaYsjpJqiWxY3LMLuiCOOMHG24447mqUNoYcFE9cwIgfR9J///Mdqc+ONN5qIw8K3yiqrhDfffDP86U9/smtvvfWWWeGw4CHGSHvMmHVNIGHBQ8AiTLGUYsGkHIhRrH64p3lxTCBdjnleK6KRfHlhscQ1jog77LDDzAVPWrfffnt4+OGHwznnnGMTkBCKWFIvu+yycPLJJ5tYveGGG/JliHUnT6ytWEWxRp566qlhgw02CNtsvY0J09HrjLY6457n+sMPPxKw4DLrDtFLXbzM1IM6YY3kHHXEdf2vf/3LGF9yySUBKyd5jB8/3sQwjw27/vrrwyMx3Wn/My3ccccdxpF6I7qPPvroZcZ0GhT9EwEREAEREIEyJSBLZcobHjHEmEEsfgTEIEJz/fXXN9GFVe3+++8Pv/vd78zix7hAXNmIsZ133jk88MAD0Yq4oVnvGJe42Wab2ThEHoeF6/vSSy81QYhrF5FHfv5CrBKwBnIOIUZA7HGMKPM4WEvJj3DNNdeYFRSrKFbNddZZx0Qe9xE4/4Mf/MD2J0+eHHbddVcTyIhgrH6IP9LH5Ux9ENRYarESIhgfe+yx8Nvf/tastVgssaCefvrpNnkI6ygWxGeeecbEN9Zb0iFvlmaivBzzYpzl8OHDw1//+ldze0+ZMsXKdOaZZwYsqNMumGZWWoYY/OIXvzCr5lVXXRUQvqxBRt2wFFMXjhVEQAREQAREoJwJyFKZ0tZHWFXFsX4IHyySuGYZU/jII49YiZmkg1DCYok1kAk7u+22my22yj0EXN8IPFy+M2fONDf5rbfeata8ffbZxyyNEydODCNHjjTXtE86QdCR/5Zbbmnbe++910QYVk+sf3fffbed/+53v2sCl7wQuh7cDY9FkMA4RWZsIy6xSP785z+3enENoUo9XEwi9vw84yKxCm677bZmmTzppJNMWOI6R+g99NBDJiiJ7+LW9yk/YpjgVsn+/fpbXpxjvUvyZXFa8sHVjRWT/Ck/oamxySy5lI24nKcOPPUBt/gvf/lLE6U+Cchu0j8REAERKAMC9LG8CL6f3Pp5i/A1//wej+9ptj5Oxvua5HSphwlIVPZwA7SVPR+evGUw/6FFFCHQcCdvsskmASsj1ktc14hMxiLi3kY8YjFD4OEKZzzh888/H2bMmBGmXzjdskKcIsYI1113XcA6h6UP0USeBMQl6TN+cezYsSboDj/8cLMwIqSwKCLqGGdJPMLNN99s7mOsiIxPXGONNcwCiaBEdDG5BgGMZQ8Bx3kCdUXIed6UwwP75INrH0skC8liqcQNTd0Rd5MmTbT6MgwAtzvXsFJuvPHG4Tvf+Y7VhYlE3Mc4SyYH1fSKC9FG9zpcXXgiSidGgc05ZrfDjzyxvuK632mnnSzPvfbaK1x88cUWD9c5eUhUeotpKwIiUC4E6LO9307WeWn0CNF3+/cYWw++n4urbtD3epy20vF7fNtefn5d23QQkPs7He2wTCn48PBhY2kCrGO8ONfQ2BAG9BoQVl99dZvNjWsYtzMTbBCWgwYPCgMGDDABygxt3LJYK7Es4trGWjhlyjHx+B4TdwhUJpwg8nCXu/ubwvCBJy0sm4xZvD6OLeRFIB2E18ho4WSMJgGXO5ZSxBhpYknFwopbnkk0TIYhcI41NhG/WD29bgjL1scIaeL/8Y9/tDRYXsnDeuutF84777wwevQ6Ydq0aTYxiSEBCDzGXVI+LJAHHHBAuOCCC8w1znXSY6kHeJI3cRDRCPYf/vCHNsyAeiJOsVxikcTFDismNjGmlfvgg1CGm0/U8bJpKwIiIAKlTsAFIvWkD6UPd48VW/pF/9GOiCRUxiehcV+vXr2t7+UhHsl03OPk93Fs333N3jcEK4En7vj3ZOtz5MV1zifjEV+h8AQqYoN+9TOijfywCGEtUuh+AljF+CCytA8TXRAs7jK2D1IUkbNem2WuXQQRTVUVlxl6///eN/HGWEksfjxblPsZd8h9s+O4y43HbRJWHrKyWfmwTvJkHtzITDAhXyyYb7zxho0dxK3N8jmIMSa8cJ102CIWEbPPPP2MLR2EWGXcIiKRsmMVZAY0M9L3228/m1WN2xw3MVZM8mUyDvFIC+sp+TEp6I1oARz2rW+ZtY/O5bXXXjNBivUPoUsZqDPiltnuWBt5PyKqyYO0EcKUBTc5dSLuhAkTbIsoRABiOeX+7bff3u5HjFNXuND5YY31OiMSsYxinRw9enTYaqutbFwn8RCsT8ZF2CkDrn/4I0YJlFVBBEQgmwToZ/wzzNJsfO7xhCTPp6lmXi76Lfp1vEaMT1+wYL4Jt2KU1YViTU0v+2H/4osvWn9M3qwfzDh091T179/PirSwebk5+lcmRu67777W9yIAq6trWoYU/epXv7LvlzPOOMP6W4wEDQ31cVm3/iYW6cNdOPK9QvBzCFEspWzhw763rUUs8D+49O+/kn2P4F17LHrvmLPgbVbg7IuWfHvaUJbKojVBxzPizUdgnUYf15j/wMRxgHGc36hRo0wIIagQTri9EXjsE8aMGWO/EnFrM+GENAgIN08HYYjAQ7zxq5AOlPRcXFEG0vT4CEeOOY9YxNKIOGyK93I/C7UjfLEgcg9x3AKICMSi6mXg3oGD4nI/UeQh1BDSdAx0jn5MXgQ6A4+/99572zkvA+UlHsJuZLSaIg4JXk+uUT8so+bSr11oP5A4Txl9FrvXkXS5l/PwoSz82qYMlJH7sFpyDGvqTLoE7i1mx2WZ6p8IiIAI9BABRB2CjR/cCEqWhcObxA94vGcYMJhIynj/N998y/pPlpsj/l133RWujx4h+lm8bNGGadcRmmuttZb1q/SteIfwfuFR4nuGfDAi4C2j3+7Tp58ZFPjeov/nHOsdM1ae5e24D0OBf6/1EKqyylaiMqXNjUBBqCBqCAgaFy4IGj48nCMeooqZzVXRtUDwa1xHeC1YuMBcvhx7Ooi+5D0umjxf0iE/j+954DrmHBZAyjE6WiRxsTOrHEFGOvxCpEPgfracc8HrZUAcIxbJj3N86JPH3OuBNIiPiKPMXgYvG9dJvzaut9n6GmmQrs38rqq2J/1wjnth4/ueH+WBOU/a8bSScRDqzs3ryHXuUxABERCBciLAEC0C3wdYJfEG4TVj/DoeJ/r+qVOnmjeOeBgyWO+XyZ8IUp7MxhAphj7RB2PRQwiyz4vzeJ/mzp1rK4jQZ9M/jxs3LkyfPj2cGVfqYBIqaWGUOP3008JPfvITM1Iwfp7x/+TJ9x3fSwqFJyDKhWfc6RxcoLD1fRLxfQRRMiBu+GsrcE/r+Jz7pnuSabUXH0vekJWHhKOOOqpFONK5eGivvFz3NJNxKZMHvzd53FaZPR51bKue3J+8z+NzPhk/eZ795DXiEjifTMvP2UX9EwEREIEyJODWSiZEHnLIIWZcQMThtWJMPmP6GaOOGMRjhcgjHsvZMRnSBSXoMC4gJt2yyD6WTVY+YfgTy+Lh+cKAwXJ5WDsRlpSBcfwISyyjCEjG3FMGDA7J75YybKKiVlmisqi4SyczPuyILCyIcz+fa1ZShBjnCUmRVjq1Vk1EQAREQASSBBBsDDNiHD1Cj2NWzcBKyJAo3NuMc8fKiFuaMfasYEI8hnJhzcxPrsmP48fNPXjIYBv+RRw8bwxJYtw+bnO8Rcw/IL2+ffuY2OS7hzx8LD7X991v3/DO2+/Yd5K+j5ItVtj9ZU1ehc1LqZcQAf+QsmXsp1v2OPZrJVRdVUUEREAERCBBgMk1uVzeiIDXismXPHiCJ6TxYAhc2Ztvvrnts4IHj9nFishyb1gyGc7EE9YwRPD0OOIzVhJ39mWXXmZucSZN8theJlXiMsflzfJuLCHHpNGGhkYTmKzSwVhLJk8y3Amr6Bfz4lClaPnk+8iNHYnia7dABGSpLBBYJSsCIiACIiACpUqAiTqVlTmb0MhqGlgcGUuJkGPMI2MpsVQy+YZl3QgsT4eLGgGJa/ryyy83KyTDphCaWCNJh7WAEYOT44x2HvmLC5zVPljrGOvlMcccY8vF+aQg4jLph+XsmLAzMk7cTApKGTqK9y7UkkLFY71cTrzpsfC1t6TQcjfohAiIgAiIQLcT8OE8JKwlhTqHF3Z9+vSO4xi/8lhxjrGM9fV10YI4yJYFQtixYgjjIRGJHOPqdisiW8ZCMsYSsYh4RCTi/iaw3B0zzLmX84hQn8TDdykudayUrCRCuu4K71xtVjy2lhRacYZKQQREQAREQAREoIwIuBhEHCL8crn8ahqOgJnhWDMZA+lrSbKPcMRdjvucxdAJpEU6rEXJC6skgXU3SYOA65wxmQhIViNBdJIes8X9Oudq49JxBF9onXQVikdA7u/isVZOIiACIiACIlByBBB+Uc+1GRCRCEEC+y4go+xrsVIi/DjvQpDZ3AQXlFxHMGKBJHg6baetqSIGqYf+SVT2EHhlKwIiIAIiIAJZJZC0ACb326pP8rrv+9bj+7Fv/bxvW5/3Y98SL7nf1rGnpW3hCEjSF46tUhYBERABERABERCBsiEgUVk2Ta2KioAIiIAIiIAIiEDhCEhUFo6tUhYBERABERABERCBsiEgUVk2Ta2KioAIiIAIiIAIiEDhCGiiTuHYdiplZscx+42XggiIgAiIQPEIJPvd5H7xStD1nPx7gy1PuKmo0HdI12mu+J20gbVFXDKpHINEZUpaneUSWB6hKZdfSqGyeW2ulBRPxRABERCBkiWQY83E5j7XHzmb9sq6+GXGc15Q8tjE8hQyaWor2oAlkZY2P8KSsnlbpamchSqLRGWhyHYgXX+j8Sbk6QA8RYBFYQmtl0boQHKKIgIiIAIi0AUC9MXe5y5atKhFBCTPdyHZgt1CuRC/LiJ5sgwLg2OcyIooLhicHk6YNuHpP7QJgR8svLc47++xHi5iQbOXqCwo3q9P3N9gPF5q1qxZ4amnnvr6G3RVBERABESgYAQQazz9ZfDgwQXLo7sSdsGLIWL69Onhtttus+dm+/dKd+WjdDpHgHbhWeazZ8+2R1XWxMdXcq5cgp793YMt7Z0CRcBczss7hHJ6E/ZgEyhrERABEbB+1/tchiG5tS/ZR6cJE+XiRTkxRsycOXOZOqSprOVYFr7HsUxuucUWYdLkyS1WSv9+LwUmc+bMCUOHDl2uKhKVyyEp/om0dlzFJ6EcRUAERKDnCWSlT85KOXu+RXuuBKXaRu2JSrm/e+69Zr80/ZcLbzwFERABERCB9BBIqyDw7wu3iPmzstNDTiWBAJZkxrkm26vUyUhU9mALu6D0bQ8WRVmLgAiIgAi0IpDWvjlZLoSLu+tbFV+HKSGQbK+UFKlgxdDi5wVDq4RFQAREQAREQAREoHwISFSWT1urpiIgAiIgAiIgAiJQMAISlQVDq4RFQAREQAREQAREoHwISFSWT1urpiIgAiIgAiIgAiJQMAIdmqjD1HEFERABERABERABERABEWiPwDeuU9nejTovAiIgAiIgAiIgAiIgAk5A7m8noa0IiIAIiIAIiIAIiECXCUhUdhmdbhQBERABERABERABEXACEpVOQlsREAEREAEREAEREIEuE5Co7DI63SgCIiACIiACIiACIuAE/h/4bsfVcT71LgAAAABJRU5ErkJggg==;" vertex="1" parent="1">
          <mxGeometry x="50" y="330" width="661" height="407" as="geometry" />
        </mxCell>
        <mxCell id="eMHiDjT53iHaDXQ3OkJ9-17" value="" style="endArrow=classic;html=1;rounded=0;exitX=1;exitY=0.5;exitDx=0;exitDy=0;" edge="1" parent="1" source="eMHiDjT53iHaDXQ3OkJ9-14">
          <mxGeometry width="50" height="50" relative="1" as="geometry">
            <mxPoint x="640" y="200" as="sourcePoint" />
            <mxPoint x="690" y="190" as="targetPoint" />
          </mxGeometry>
        </mxCell>
        <mxCell id="eMHiDjT53iHaDXQ3OkJ9-18" value="decides the next action in a conversation" style="text;html=1;align=center;verticalAlign=middle;whiteSpace=wrap;rounded=0;" vertex="1" parent="1">
          <mxGeometry x="690" y="155" width="129" height="70" as="geometry" />
        </mxCell>
        <mxCell id="eMHiDjT53iHaDXQ3OkJ9-19" value="&lt;h1&gt;Rasa architecture&lt;/h1&gt;" style="text;html=1;align=center;verticalAlign=middle;whiteSpace=wrap;rounded=0;" vertex="1" parent="1">
          <mxGeometry x="280" y="20" width="320" height="50" as="geometry" />
        </mxCell>
        <mxCell id="eMHiDjT53iHaDXQ3OkJ9-21" value="source: https://rasa.com/docs/rasa/arch-overview/" style="text;html=1;align=center;verticalAlign=middle;whiteSpace=wrap;rounded=0;" vertex="1" parent="1">
          <mxGeometry x="530" y="737" width="315" height="30" as="geometry" />
        </mxCell>
      </root>
    </mxGraphModel>
  </diagram>
</mxfile>
